<svg width="37" height="48" viewBox="0 0 37 48" fill="none" xmlns="http://www.w3.org/2000/svg">
<path d="M15.5 -4.57764e-05C17.1594 -4.57764e-05 18.5 1.34058 18.5 2.99995V13.5H12.5V2.99995C12.5 1.34058 13.8406 -4.57764e-05 15.5 -4.57764e-05ZM3.5 5.99995C3.5 4.34058 4.84062 2.99995 6.5 2.99995C8.15938 2.99995 9.5 4.34058 9.5 5.99995V13.5H3.5V5.99995ZM21.5 5.99995C21.5 4.34058 22.8406 2.99995 24.5 2.99995C26.1594 2.99995 27.5 4.34058 27.5 5.99995V15C27.5 16.6593 26.1594 18 24.5 18C22.8406 18 21.5 16.6593 21.5 15V5.99995ZM30.5 12C30.5 10.3406 31.8406 8.99995 33.5 8.99995C35.1594 8.99995 36.5 10.3406 36.5 12V18C36.5 19.6593 35.1594 21 33.5 21C31.8406 21 30.5 19.6593 30.5 18V12ZM21.5 20.25V20.1937C22.3813 20.7 23.4031 21 24.5 21C25.7375 21 26.8813 20.625 27.8375 19.9875C28.6531 22.3218 30.8844 24 33.5 24C34.5969 24 35.6188 23.7093 36.5 23.1937V24C36.5 28.9031 34.1469 33.2625 30.5 36V45C30.5 46.6593 29.1594 48 27.5 48H12.5C10.8406 48 9.5 46.6593 9.5 45V37.65C7.87813 36.9093 6.3875 35.8875 5.10312 34.6031L4.01562 33.5156C1.76562 31.2656 0.5 28.2093 0.5 25.0312V22.5C0.5 19.1906 3.19063 16.5 6.5 16.5H14.75C16.8219 16.5 18.5 18.1781 18.5 20.25C18.5 22.3218 16.8219 24 14.75 24H9.5C8.675 24 8 24.675 8 25.5C8 26.325 8.675 27 9.5 27H14.75C18.4813 27 21.5 23.9812 21.5 20.25Z" fill="#0B0A0C"/>
</svg>
