
<svg width="43" height="48" viewBox="0 0 43 48" fill="none" xmlns="http://www.w3.org/2000/svg">
<g clip-path="url(#clip0_1_495)">
<path d="M32 4.49994C32 2.01556 29.9844 -6.10352e-05 27.5 -6.10352e-05C25.0156 -6.10352e-05 23 2.01556 23 4.49994C23 6.98431 25.0156 8.99994 27.5 8.99994C29.9844 8.99994 32 6.98431 32 4.49994ZM13.7844 16.4531C14.7125 15.5249 15.9781 14.9999 17.3 14.9999C17.4781 14.9999 17.6562 15.0093 17.825 15.0281L14.9 23.8124C14.0281 26.4374 15.0594 29.3249 17.4125 30.7968L25.4937 35.8499L23.1125 44.1749C22.6531 45.7687 23.5812 47.4281 25.175 47.8874C26.7687 48.3468 28.4281 47.4187 28.8875 45.8249L31.5781 36.4124C32.1312 34.4812 31.3344 32.4187 29.6375 31.3593L24.3125 28.0312L27.2094 20.3062L27.6875 21.4593C29.0937 24.8156 32.3656 26.9999 36.0031 26.9999H38C39.6594 26.9999 41 25.6593 41 23.9999C41 22.3406 39.6594 20.9999 38 20.9999H36.0031C34.7937 20.9999 33.6969 20.2687 33.2375 19.1531L32.6469 17.7468C31.2781 14.4562 28.5125 11.9437 25.1 10.8937L20.5344 9.48744C19.4937 9.16869 18.4062 8.99994 17.3094 8.99994C14.4031 8.99994 11.6094 10.1531 9.55625 12.2156L7.38125 14.3812C6.20937 15.5531 6.20937 17.4562 7.38125 18.6281C8.55312 19.7999 10.4562 19.7999 11.6281 18.6281L13.7937 16.4624L13.7844 16.4531ZM10.55 32.9999H5C3.34062 32.9999 2 34.3406 2 35.9999C2 37.6593 3.34062 38.9999 5 38.9999H11.525C13.3062 38.9999 14.9187 37.9499 15.6406 36.3281L16.7187 33.8999L15.8281 33.3374C14.1875 32.3156 12.9687 30.8249 12.275 29.1281L10.55 32.9999Z" fill="#0B0A0C"/>
</g>
<defs>
<clipPath id="clip0_1_495">
<rect width="42" height="48" fill="white" transform="translate(0.5 -6.10352e-05)"/>
</clipPath>
</defs>
</svg>
