<svg
            width="150"
            height="122"
            viewBox="0 0 150 122"
            fill="none"
            xmlns="http://www.w3.org/2000/svg"
          >
            <rect width="150" height="122" rx="15" fill="#F9E8E7" />
            <path
              d="M38.0455 85V73.08H39.3255V85H38.0455ZM42.7633 85V76.424H43.9633V78.056L43.7713 77.816C44.0059 77.3147 44.3526 76.9253 44.8113 76.648C45.2806 76.3707 45.7926 76.232 46.3473 76.232C47.0086 76.232 47.6059 76.4187 48.1393 76.792C48.6726 77.1653 49.0513 77.6507 49.2753 78.248L48.9393 78.264C49.1526 77.6027 49.5206 77.1013 50.0433 76.76C50.5766 76.408 51.1633 76.232 51.8033 76.232C52.3793 76.232 52.9073 76.3707 53.3873 76.648C53.8779 76.9253 54.2673 77.3093 54.5553 77.8C54.8539 78.28 55.0033 78.824 55.0033 79.432V85H53.8033V79.896C53.8033 79.3733 53.7073 78.9307 53.5153 78.568C53.3339 78.2053 53.0833 77.928 52.7633 77.736C52.4433 77.5333 52.0753 77.432 51.6593 77.432C51.2539 77.432 50.8859 77.5333 50.5553 77.736C50.2246 77.928 49.9633 78.2107 49.7713 78.584C49.5793 78.9467 49.4833 79.384 49.4833 79.896V85H48.2833V79.896C48.2833 79.3733 48.1873 78.9307 47.9953 78.568C47.8139 78.2053 47.5633 77.928 47.2433 77.736C46.9233 77.5333 46.5553 77.432 46.1393 77.432C45.7233 77.432 45.3499 77.5333 45.0193 77.736C44.6993 77.928 44.4433 78.2107 44.2513 78.584C44.0593 78.9467 43.9633 79.384 43.9633 79.896V85H42.7633ZM58.0945 88.2V76.424H59.2945V78.344L59.1025 78.008C59.4438 77.464 59.8972 77.032 60.4625 76.712C61.0385 76.392 61.6945 76.232 62.4305 76.232C63.2412 76.232 63.9612 76.4293 64.5905 76.824C65.2305 77.208 65.7318 77.736 66.0945 78.408C66.4678 79.08 66.6545 79.848 66.6545 80.712C66.6545 81.5653 66.4678 82.3333 66.0945 83.016C65.7318 83.688 65.2305 84.2213 64.5905 84.616C63.9612 85 63.2412 85.192 62.4305 85.192C61.6945 85.192 61.0278 85.0267 60.4305 84.696C59.8438 84.3547 59.4012 83.8747 59.1025 83.256L59.2945 83.08V88.2H58.0945ZM62.3665 83.992C62.9425 83.992 63.4545 83.848 63.9025 83.56C64.3612 83.272 64.7185 82.8827 64.9745 82.392C65.2412 81.8907 65.3745 81.3307 65.3745 80.712C65.3745 80.0827 65.2412 79.5227 64.9745 79.032C64.7185 78.5413 64.3612 78.152 63.9025 77.864C63.4545 77.576 62.9425 77.432 62.3665 77.432C61.7905 77.432 61.2678 77.576 60.7985 77.864C60.3398 78.152 59.9718 78.5467 59.6945 79.048C59.4278 79.5387 59.2945 80.0933 59.2945 80.712C59.2945 81.3307 59.4278 81.8907 59.6945 82.392C59.9718 82.8827 60.3398 83.272 60.7985 83.56C61.2678 83.848 61.7905 83.992 62.3665 83.992ZM69.5664 85V76.424H70.7664V77.832L70.6064 77.624C70.809 77.2187 71.113 76.8987 71.5184 76.664C71.9344 76.4293 72.4357 76.312 73.0224 76.312H73.5664V77.512H72.8144C72.1957 77.512 71.6997 77.704 71.3264 78.088C70.953 78.472 70.7664 79.016 70.7664 79.72V85H69.5664ZM79.7886 85.192C78.978 85.192 78.242 85 77.5806 84.616C76.9193 84.2213 76.3913 83.688 75.9966 83.016C75.6126 82.3333 75.4206 81.56 75.4206 80.696C75.4206 79.8427 75.6126 79.08 75.9966 78.408C76.3806 77.736 76.898 77.208 77.5486 76.824C78.21 76.4293 78.9566 76.232 79.7886 76.232C80.6206 76.232 81.362 76.424 82.0126 76.808C82.674 77.192 83.1913 77.72 83.5646 78.392C83.9486 79.064 84.1406 79.832 84.1406 80.696C84.1406 81.5707 83.9433 82.3493 83.5486 83.032C83.154 83.704 82.626 84.232 81.9646 84.616C81.314 85 80.5886 85.192 79.7886 85.192ZM79.7886 83.992C80.3646 83.992 80.882 83.848 81.3406 83.56C81.81 83.272 82.178 82.8773 82.4446 82.376C82.722 81.8747 82.8606 81.3147 82.8606 80.696C82.8606 80.0773 82.722 79.5227 82.4446 79.032C82.178 78.5413 81.81 78.152 81.3406 77.864C80.882 77.576 80.3646 77.432 79.7886 77.432C79.2126 77.432 78.69 77.576 78.2206 77.864C77.762 78.152 77.394 78.5413 77.1166 79.032C76.8393 79.5227 76.7006 80.0773 76.7006 80.696C76.7006 81.3147 76.8393 81.8747 77.1166 82.376C77.394 82.8773 77.762 83.272 78.2206 83.56C78.69 83.848 79.2126 83.992 79.7886 83.992ZM89.1888 85L85.8448 76.424H87.1888L90.0048 83.944H89.5728L92.4048 76.424H93.7648L90.3888 85H89.1888ZM99.7141 85.192C98.9141 85.192 98.1888 85 97.5381 84.616C96.8981 84.2213 96.3915 83.6827 96.0181 83C95.6448 82.3173 95.4581 81.544 95.4581 80.68C95.4581 79.816 95.6395 79.0533 96.0021 78.392C96.3648 77.72 96.8555 77.192 97.4741 76.808C98.1035 76.424 98.8075 76.232 99.5861 76.232C100.205 76.232 100.754 76.3493 101.234 76.584C101.725 76.808 102.141 77.1173 102.482 77.512C102.823 77.896 103.085 78.3333 103.266 78.824C103.447 79.304 103.538 79.8 103.538 80.312C103.538 80.4187 103.533 80.5413 103.522 80.68C103.511 80.808 103.495 80.9413 103.474 81.08H96.2261V79.96H102.786L102.21 80.44C102.306 79.8533 102.237 79.3307 102.002 78.872C101.778 78.4027 101.453 78.0347 101.026 77.768C100.599 77.4907 100.119 77.352 99.5861 77.352C99.0528 77.352 98.5568 77.4907 98.0981 77.768C97.6501 78.0453 97.2981 78.4347 97.0421 78.936C96.7861 79.4267 96.6848 80.0133 96.7381 80.696C96.6848 81.3787 96.7915 81.976 97.0581 82.488C97.3355 82.9893 97.7088 83.3787 98.1781 83.656C98.6581 83.9333 99.1701 84.072 99.7141 84.072C100.343 84.072 100.871 83.9227 101.298 83.624C101.725 83.3253 102.071 82.952 102.338 82.504L103.362 83.048C103.191 83.432 102.93 83.7893 102.578 84.12C102.226 84.44 101.805 84.7013 101.314 84.904C100.834 85.096 100.301 85.192 99.7141 85.192ZM109.43 85.192C108.609 85.192 107.889 84.984 107.27 84.568C106.651 84.152 106.203 83.5867 105.926 82.872L106.934 82.392C107.179 82.9147 107.521 83.3307 107.958 83.64C108.406 83.9493 108.897 84.104 109.43 84.104C109.942 84.104 110.374 83.9813 110.726 83.736C111.078 83.48 111.254 83.1493 111.254 82.744C111.254 82.4453 111.169 82.2107 110.998 82.04C110.827 81.8587 110.63 81.72 110.406 81.624C110.182 81.528 109.985 81.4587 109.814 81.416L108.582 81.064C107.793 80.84 107.222 80.5253 106.87 80.12C106.518 79.7147 106.342 79.2453 106.342 78.712C106.342 78.2107 106.47 77.7733 106.726 77.4C106.982 77.0267 107.329 76.7387 107.766 76.536C108.203 76.3333 108.689 76.232 109.222 76.232C109.947 76.232 110.603 76.424 111.19 76.808C111.787 77.1813 112.209 77.704 112.454 78.376L111.43 78.856C111.217 78.376 110.907 78.0027 110.502 77.736C110.107 77.4587 109.665 77.32 109.174 77.32C108.694 77.32 108.31 77.4427 108.022 77.688C107.734 77.9333 107.59 78.2427 107.59 78.616C107.59 78.904 107.665 79.1333 107.814 79.304C107.963 79.4747 108.134 79.6027 108.326 79.688C108.529 79.7733 108.705 79.8373 108.854 79.88L110.278 80.296C110.971 80.4987 111.51 80.8133 111.894 81.24C112.289 81.6667 112.486 82.168 112.486 82.744C112.486 83.2133 112.353 83.6347 112.086 84.008C111.83 84.3813 111.473 84.6747 111.014 84.888C110.555 85.0907 110.027 85.192 109.43 85.192ZM40.6931 105.192C39.8931 105.192 39.1731 105 38.5331 104.616C37.8931 104.221 37.3864 103.688 37.0131 103.016C36.6504 102.333 36.4691 101.565 36.4691 100.712C36.4691 99.848 36.6504 99.08 37.0131 98.408C37.3864 97.736 37.8877 97.208 38.5171 96.824C39.1571 96.4293 39.8824 96.232 40.6931 96.232C41.4291 96.232 42.0851 96.392 42.6611 96.712C43.2371 97.032 43.6904 97.464 44.0211 98.008L43.8291 98.344V92.888H45.0291V105H43.8291V103.08L44.0211 103.256C43.7224 103.875 43.2744 104.355 42.6771 104.696C42.0904 105.027 41.4291 105.192 40.6931 105.192ZM40.7571 103.992C41.3331 103.992 41.8504 103.848 42.3091 103.56C42.7784 103.272 43.1464 102.883 43.4131 102.392C43.6904 101.891 43.8291 101.331 43.8291 100.712C43.8291 100.093 43.6904 99.5387 43.4131 99.048C43.1464 98.5467 42.7784 98.152 42.3091 97.864C41.8504 97.576 41.3331 97.432 40.7571 97.432C40.1917 97.432 39.6797 97.576 39.2211 97.864C38.7624 98.152 38.3997 98.5413 38.1331 99.032C37.8771 99.5227 37.7491 100.083 37.7491 100.712C37.7491 101.331 37.8771 101.891 38.1331 102.392C38.3997 102.883 38.7571 103.272 39.2051 103.56C39.6637 103.848 40.1811 103.992 40.7571 103.992ZM48.2929 105V96.424H49.4929V105H48.2929ZM48.2929 94.84V93.08H49.4929V94.84H48.2929ZM56.8132 108.52C56.2265 108.52 55.6825 108.429 55.1812 108.248C54.6905 108.067 54.2639 107.816 53.9012 107.496C53.5492 107.187 53.2772 106.824 53.0852 106.408L54.1892 105.816C54.3599 106.221 54.6639 106.573 55.1012 106.872C55.5385 107.171 56.0985 107.32 56.7812 107.32C57.3039 107.32 57.7839 107.219 58.2212 107.016C58.6585 106.813 59.0105 106.515 59.2772 106.12C59.5439 105.725 59.6772 105.24 59.6772 104.664V102.76L59.8692 102.936C59.5705 103.555 59.1279 104.035 58.5412 104.376C57.9545 104.707 57.3145 104.872 56.6212 104.872C55.8212 104.872 55.1012 104.68 54.4612 104.296C53.8212 103.912 53.3145 103.395 52.9412 102.744C52.5785 102.083 52.3972 101.352 52.3972 100.552C52.3972 99.7413 52.5785 99.0107 52.9412 98.36C53.3145 97.7093 53.8159 97.192 54.4452 96.808C55.0852 96.424 55.8105 96.232 56.6212 96.232C57.3145 96.232 57.9439 96.392 58.5092 96.712C59.0852 97.032 59.5385 97.464 59.8692 98.008L59.6772 98.344V96.424H60.8772V104.664C60.8772 105.4 60.7012 106.056 60.3492 106.632C60.0079 107.219 59.5279 107.677 58.9092 108.008C58.3012 108.349 57.6025 108.52 56.8132 108.52ZM56.6852 103.672C57.2399 103.672 57.7412 103.533 58.1892 103.256C58.6372 102.968 58.9945 102.589 59.2612 102.12C59.5385 101.64 59.6772 101.117 59.6772 100.552C59.6772 99.9867 59.5385 99.4693 59.2612 99C58.9945 98.52 58.6372 98.1413 58.1892 97.864C57.7412 97.576 57.2399 97.432 56.6852 97.432C56.1199 97.432 55.6079 97.576 55.1492 97.864C54.6905 98.1413 54.3279 98.5147 54.0612 98.984C53.8052 99.4533 53.6772 99.976 53.6772 100.552C53.6772 101.117 53.8052 101.64 54.0612 102.12C54.3279 102.589 54.6852 102.968 55.1332 103.256C55.5919 103.533 56.1092 103.672 56.6852 103.672ZM68.0469 105.192C67.2469 105.192 66.5216 105 65.8709 104.616C65.2309 104.221 64.7243 103.683 64.3509 103C63.9776 102.317 63.7909 101.544 63.7909 100.68C63.7909 99.816 63.9723 99.0533 64.3349 98.392C64.6976 97.72 65.1883 97.192 65.8069 96.808C66.4363 96.424 67.1403 96.232 67.9189 96.232C68.5376 96.232 69.0869 96.3493 69.5669 96.584C70.0576 96.808 70.4736 97.1173 70.8149 97.512C71.1563 97.896 71.4176 98.3333 71.5989 98.824C71.7803 99.304 71.8709 99.8 71.8709 100.312C71.8709 100.419 71.8656 100.541 71.8549 100.68C71.8443 100.808 71.8283 100.941 71.8069 101.08H64.5589V99.96H71.1189L70.5429 100.44C70.6389 99.8533 70.5696 99.3307 70.3349 98.872C70.1109 98.4027 69.7856 98.0347 69.3589 97.768C68.9323 97.4907 68.4523 97.352 67.9189 97.352C67.3856 97.352 66.8896 97.4907 66.4309 97.768C65.9829 98.0453 65.6309 98.4347 65.3749 98.936C65.1189 99.4267 65.0176 100.013 65.0709 100.696C65.0176 101.379 65.1243 101.976 65.3909 102.488C65.6683 102.989 66.0416 103.379 66.5109 103.656C66.9909 103.933 67.5029 104.072 68.0469 104.072C68.6763 104.072 69.2043 103.923 69.6309 103.624C70.0576 103.325 70.4043 102.952 70.6709 102.504L71.6949 103.048C71.5243 103.432 71.2629 103.789 70.9109 104.12C70.5589 104.44 70.1376 104.701 69.6469 104.904C69.1669 105.096 68.6336 105.192 68.0469 105.192ZM77.7627 105.192C76.9414 105.192 76.2214 104.984 75.6027 104.568C74.984 104.152 74.536 103.587 74.2587 102.872L75.2667 102.392C75.512 102.915 75.8534 103.331 76.2907 103.64C76.7387 103.949 77.2294 104.104 77.7627 104.104C78.2747 104.104 78.7067 103.981 79.0587 103.736C79.4107 103.48 79.5867 103.149 79.5867 102.744C79.5867 102.445 79.5014 102.211 79.3307 102.04C79.16 101.859 78.9627 101.72 78.7387 101.624C78.5147 101.528 78.3174 101.459 78.1467 101.416L76.9147 101.064C76.1254 100.84 75.5547 100.525 75.2027 100.12C74.8507 99.7147 74.6747 99.2453 74.6747 98.712C74.6747 98.2107 74.8027 97.7733 75.0587 97.4C75.3147 97.0267 75.6614 96.7387 76.0987 96.536C76.536 96.3333 77.0214 96.232 77.5547 96.232C78.28 96.232 78.936 96.424 79.5227 96.808C80.12 97.1813 80.5414 97.704 80.7867 98.376L79.7627 98.856C79.5494 98.376 79.24 98.0027 78.8347 97.736C78.44 97.4587 77.9974 97.32 77.5067 97.32C77.0267 97.32 76.6427 97.4427 76.3547 97.688C76.0667 97.9333 75.9227 98.2427 75.9227 98.616C75.9227 98.904 75.9974 99.1333 76.1467 99.304C76.296 99.4747 76.4667 99.6027 76.6587 99.688C76.8614 99.7733 77.0374 99.8373 77.1867 99.88L78.6107 100.296C79.304 100.499 79.8427 100.813 80.2267 101.24C80.6214 101.667 80.8187 102.168 80.8187 102.744C80.8187 103.213 80.6854 103.635 80.4187 104.008C80.1627 104.381 79.8054 104.675 79.3467 104.888C78.888 105.091 78.36 105.192 77.7627 105.192ZM87.0073 105.096C86.2393 105.096 85.6473 104.872 85.2313 104.424C84.8153 103.976 84.6073 103.336 84.6073 102.504V97.624H83.0233V96.424H83.4233C83.786 96.424 84.074 96.3067 84.2873 96.072C84.5006 95.8267 84.6073 95.5227 84.6073 95.16V94.44H85.8073V96.424H87.6953V97.624H85.8073V102.504C85.8073 102.792 85.85 103.048 85.9353 103.272C86.0206 103.485 86.1646 103.656 86.3673 103.784C86.5806 103.912 86.8633 103.976 87.2153 103.976C87.3006 103.976 87.402 103.971 87.5193 103.96C87.6366 103.949 87.738 103.939 87.8233 103.928V105C87.6953 105.032 87.5513 105.053 87.3913 105.064C87.2313 105.085 87.1033 105.096 87.0073 105.096ZM90.7304 105V96.424H91.9304V105H90.7304ZM90.7304 94.84V93.08H91.9304V94.84H90.7304ZM99.2027 105.192C98.392 105.192 97.656 105 96.9947 104.616C96.3334 104.221 95.8054 103.688 95.4107 103.016C95.0267 102.333 94.8347 101.56 94.8347 100.696C94.8347 99.8427 95.0267 99.08 95.4107 98.408C95.7947 97.736 96.312 97.208 96.9627 96.824C97.624 96.4293 98.3707 96.232 99.2027 96.232C100.035 96.232 100.776 96.424 101.427 96.808C102.088 97.192 102.605 97.72 102.979 98.392C103.363 99.064 103.555 99.832 103.555 100.696C103.555 101.571 103.357 102.349 102.963 103.032C102.568 103.704 102.04 104.232 101.379 104.616C100.728 105 100.003 105.192 99.2027 105.192ZM99.2027 103.992C99.7787 103.992 100.296 103.848 100.755 103.56C101.224 103.272 101.592 102.877 101.859 102.376C102.136 101.875 102.275 101.315 102.275 100.696C102.275 100.077 102.136 99.5227 101.859 99.032C101.592 98.5413 101.224 98.152 100.755 97.864C100.296 97.576 99.7787 97.432 99.2027 97.432C98.6267 97.432 98.104 97.576 97.6347 97.864C97.176 98.152 96.808 98.5413 96.5307 99.032C96.2534 99.5227 96.1147 100.077 96.1147 100.696C96.1147 101.315 96.2534 101.875 96.5307 102.376C96.808 102.877 97.176 103.272 97.6347 103.56C98.104 103.848 98.6267 103.992 99.2027 103.992ZM106.471 105V96.424H107.671V98.088L107.399 98.024C107.612 97.4693 107.959 97.032 108.439 96.712C108.93 96.392 109.495 96.232 110.135 96.232C110.743 96.232 111.287 96.3707 111.767 96.648C112.258 96.9253 112.642 97.3093 112.919 97.8C113.207 98.28 113.351 98.824 113.351 99.432V105H112.151V99.896C112.151 99.3733 112.055 98.9307 111.863 98.568C111.682 98.2053 111.42 97.928 111.079 97.736C110.748 97.5333 110.364 97.432 109.927 97.432C109.49 97.432 109.1 97.5333 108.759 97.736C108.418 97.928 108.151 98.2107 107.959 98.584C107.767 98.9467 107.671 99.384 107.671 99.896V105H106.471Z"
              fill="#0B0A0C"
            />
            <path
              d="M68.34 60.1526V56.5422C68.34 53.2386 71.018 50.5605 74.3217 50.5605H80.8189C81.1688 50.5605 81.4546 50.2757 81.4557 49.9258L81.4562 49.7384C81.4567 49.5647 81.3935 49.3941 81.271 49.2708C81.1506 49.1499 80.9902 49.0832 80.8197 49.0832H62.1506C58.8469 49.0832 56.1688 46.4051 56.1688 43.1015V42.8981C56.1688 39.5944 58.8469 36.9163 62.1506 36.9163H86.941C87.2928 36.9163 87.5778 36.6313 87.5778 36.2795V36.173C87.5778 35.8212 87.2928 35.5362 86.941 35.5362H64.9621C63.3748 35.5362 61.8797 34.921 60.752 33.804C59.6244 32.687 58.9953 31.1977 58.9803 29.6105L58.9798 29.5435C58.9649 27.9354 59.5798 26.4205 60.712 25.2779C61.8439 24.1353 63.3532 23.506 64.9616 23.506H81.2035C81.5534 23.506 81.8392 23.2212 81.8403 22.8713V22.8184C81.8408 22.6583 81.7874 22.5008 81.6812 22.381C81.5584 22.2425 81.3871 22.1656 81.2037 22.1656H76.7892C73.4855 22.1656 70.8075 19.4875 70.8075 16.1838V13.8466C70.8075 13.379 71.1865 13 71.6541 13H75.306C75.7737 13 76.1527 13.379 76.1527 13.8466V16.1836C76.1527 16.5354 76.4377 16.8204 76.7895 16.8204H81.204C82.8051 16.8204 84.3096 17.4449 85.4402 18.5787C86.5708 19.7125 87.1908 21.2189 87.186 22.82V22.835C87.1812 24.4294 86.5631 25.9689 85.436 27.0968C84.3059 28.2279 82.8025 28.8509 81.204 28.8509H64.9784C64.8038 28.8509 64.6327 28.9149 64.5097 29.0391C64.3891 29.1608 64.3231 29.3222 64.3247 29.4936L64.3253 29.5606C64.3285 29.9075 64.6149 30.1913 64.9618 30.1913H86.9549C90.2508 30.1913 92.9227 32.8632 92.9227 36.1591V36.2798C92.9227 39.5835 90.2447 42.2615 86.941 42.2615H62.1506C61.7988 42.2615 61.5138 42.5466 61.5138 42.8983V43.1017C61.5138 43.4535 61.7988 43.7385 62.1506 43.7385H80.7673C82.3714 43.7385 83.9208 44.3594 85.0537 45.4947C86.1857 46.6288 86.8065 48.1362 86.8017 49.7384L86.8011 49.9424C86.7963 51.5405 86.1689 53.0419 85.0348 54.1684C83.9034 55.2924 82.3621 55.9062 80.7671 55.9062H74.3223C73.9705 55.9062 73.6854 56.1913 73.6854 56.543V60.1534C73.6854 60.621 73.3064 61 72.8388 61H69.1868C68.7192 61 68.3402 60.621 68.3402 60.1534L68.34 60.1526Z"
              fill="#0B0A0C"
            />
            <path
              d="M94.0667 31.8085L94.055 31.7909C93.7366 31.3065 93.8708 30.6558 94.3553 30.3374L96.5382 28.9017C97.0227 28.5833 97.6734 28.7176 97.9918 29.202L98.0035 29.2196C98.3219 29.704 98.1877 30.3547 97.7032 30.6731L95.5203 32.1088C95.0359 32.4272 94.3852 32.293 94.0667 31.8085Z"
              fill="#0B0A0C"
            />
            <path
              d="M97.992 43.6948L98.0038 43.6772C98.3222 43.1927 98.1879 42.542 97.7035 42.2236L95.5205 40.788C95.0361 40.4696 94.3854 40.6038 94.067 41.0882L94.0552 41.1058C93.7368 41.5903 93.8711 42.241 94.3555 42.5594L96.5385 43.995C97.0229 44.3134 97.6736 44.1792 97.992 43.6948Z"
              fill="#0B0A0C"
            />
            <path
              d="M99.2055 35.4395H96.5931C96.0134 35.4395 95.5434 35.9094 95.5434 36.4892V36.51C95.5434 37.0897 96.0134 37.5597 96.5931 37.5597H99.2055C99.7853 37.5597 100.255 37.0897 100.255 36.51V36.4892C100.255 35.9094 99.7853 35.4395 99.2055 35.4395Z"
              fill="#0B0A0C"
            />
            <path
              d="M51.2521 35.9293L51.2637 35.9117C51.5819 35.4278 52.2333 35.2933 52.7172 35.6115L54.9001 37.0471C55.384 37.3653 55.5188 38.0168 55.2004 38.5009L55.1888 38.5185C54.8706 39.0024 54.2193 39.137 53.7354 38.8187L51.5524 37.3832C51.0685 37.0649 50.9338 36.4135 51.2521 35.9293Z"
              fill="#0B0A0C"
            />
            <path
              d="M51.5527 48.933L53.7356 47.4974C54.2195 47.1792 54.8711 47.3136 55.1894 47.7977L55.201 47.8153C55.5193 48.2992 55.3849 48.9508 54.9007 49.2692L52.7178 50.7047C52.2339 51.023 51.5823 50.8886 51.264 50.4044L51.2524 50.3868C50.9341 49.9029 51.0685 49.2514 51.5527 48.933Z"
              fill="#0B0A0C"
            />
            <path
              d="M52.6621 42.1504H50.0497C49.47 42.1504 49 42.6204 49 43.2001V43.2209C49 43.8007 49.47 44.2706 50.0497 44.2706H52.6621C53.2419 44.2706 53.7118 43.8007 53.7118 43.2209V43.2001C53.7118 42.6204 53.2419 42.1504 52.6621 42.1504Z"
              fill="#0B0A0C"
            />
          </svg>