<svg width="40" height="46" viewBox="0 0 40 46" fill="none" xmlns="http://www.w3.org/2000/svg">
<g clip-path="url(#clip0_1_295)">
<path d="M30 4.28571C30 1.91964 28.0804 0 25.7143 0C23.3482 0 21.4286 1.91964 21.4286 4.28571C21.4286 6.65179 23.3482 8.57143 25.7143 8.57143C28.0804 8.57143 30 6.65179 30 4.28571ZM12.6518 15.6696C13.5357 14.7857 14.7411 14.2857 16 14.2857C16.1697 14.2857 16.3393 14.2946 16.5 14.3125L13.7143 22.6786C12.8839 25.1786 13.8661 27.9286 16.1072 29.3304L23.8036 34.1429L21.5357 42.0714C21.0982 43.5893 21.9822 45.1696 23.5 45.6071C25.0179 46.0446 26.5982 45.1607 27.0357 43.6429L29.5982 34.6786C30.125 32.8393 29.3661 30.875 27.75 29.8661L22.6786 26.6964L25.4375 19.3393L25.8929 20.4375C27.2322 23.6339 30.3482 25.7143 33.8125 25.7143H35.7143C37.2947 25.7143 38.5714 24.4375 38.5714 22.8571C38.5714 21.2768 37.2947 20 35.7143 20H33.8125C32.6607 20 31.6161 19.3036 31.1786 18.2411L30.6161 16.9018C29.3125 13.7679 26.6786 11.375 23.4286 10.375L19.0804 9.03571C18.0893 8.73214 17.0536 8.57143 16.0089 8.57143C13.2411 8.57143 10.5804 9.66964 8.62502 11.6339L6.55359 13.6964C5.43752 14.8125 5.43752 16.625 6.55359 17.7411C7.66966 18.8571 9.48216 18.8571 10.5982 17.7411L12.6607 15.6786L12.6518 15.6696ZM9.57144 31.4286H4.28573C2.70537 31.4286 1.42859 32.7054 1.42859 34.2857C1.42859 35.8661 2.70537 37.1429 4.28573 37.1429H10.5C12.1964 37.1429 13.7322 36.1429 14.4197 34.5982L15.4464 32.2857L14.5982 31.75C13.0357 30.7768 11.875 29.3571 11.2143 27.7411L9.57144 31.4286Z" fill="#0B0A0C"/>
</g>
<defs>
<clipPath id="clip0_1_295">
<rect width="40" height="45.7143" fill="white"/>
</clipPath>
</defs>
</svg>
