<svg width="40" height="47" viewBox="0 0 40 47" fill="none" xmlns="http://www.w3.org/2000/svg">
<g clip-path="url(#clip0_1_290)">
<path d="M31.1964 4.04112C31.7232 2.79978 31.3303 1.35004 30.2499 0.552679C29.1696 -0.244679 27.6964 -0.172192 26.6874 0.715776L3.83031 21.0122C2.93745 21.8095 2.61602 23.0871 3.03567 24.2107C3.45531 25.3342 4.52674 26.0953 5.71424 26.0953H15.6696L8.80352 42.3506C8.27674 43.5919 8.66959 45.0416 9.74995 45.839C10.8303 46.6364 12.3035 46.5639 13.3125 45.6759L36.1696 25.3795C37.0624 24.5822 37.3839 23.3046 36.9642 22.181C36.5446 21.0575 35.4821 20.3054 34.2857 20.3054H24.3303L31.1964 4.04112Z" fill="#0B0A0C"/>
</g>
<defs>
<clipPath id="clip0_1_290">
<rect width="40" height="46.3918" fill="white"/>
</clipPath>
</defs>
</svg>
