<svg width="40" height="40" viewBox="0 0 40 40" fill="none" xmlns="http://www.w3.org/2000/svg">
<path d="M29.2656 6.76563C30.2422 5.78906 30.2422 4.20313 29.2656 3.22656C28.2891 2.25 26.7031 2.25 25.7266 3.22656L15 13.9609L10.5156 9.47656C9.53906 8.5 7.95313 8.5 6.97656 9.47656C6 10.4531 6 12.0391 6.97656 13.0156L13.2266 19.2656C14.2031 20.2422 15.7891 20.2422 16.7656 19.2656L29.2656 6.76563ZM36.7656 16.7656C37.7422 15.7891 37.7422 14.2031 36.7656 13.2266C35.7891 12.25 34.2031 12.25 33.2266 13.2266L15 31.4609L6.76562 23.2344C5.78906 22.2578 4.20312 22.2578 3.22656 23.2344C2.25 24.2109 2.25 25.7969 3.22656 26.7734L13.2266 36.7734C14.2031 37.75 15.7891 37.75 16.7656 36.7734L36.7656 16.7734V16.7656Z" fill="#0B0A0C"/>
</svg>
