<svg width="40" height="40" viewBox="0 0 40 40" fill="none" xmlns="http://www.w3.org/2000/svg">
<path d="M21.0469 0.226562C20.7188 0.078125 20.3672 0 20 0C19.6328 0 19.2813 0.078125 18.9532 0.226562L4.24222 6.46875C2.52347 7.19531 1.24222 8.89062 1.25004 10.9375C1.2891 18.6875 4.4766 32.8672 17.9375 39.3125C19.2422 39.9375 20.7578 39.9375 22.0625 39.3125C35.5235 32.8672 38.711 18.6875 38.75 10.9375C38.7578 8.89062 37.4766 7.19531 35.7579 6.46875L21.0469 0.226562ZM20 8.75C20.6875 8.75 21.25 9.3125 21.25 10C21.25 12.5781 24.3672 13.8672 26.1875 12.0469C26.6719 11.5625 27.4688 11.5625 27.9532 12.0469C28.4375 12.5312 28.4375 13.3281 27.9532 13.8125C26.1328 15.6328 27.4219 18.75 30 18.75C30.6875 18.75 31.25 19.3125 31.25 20C31.25 20.6875 30.6875 21.25 30 21.25C27.4219 21.25 26.1328 24.3672 27.9532 26.1875C28.4375 26.6719 28.4375 27.4688 27.9532 27.9531C27.4688 28.4375 26.6719 28.4375 26.1875 27.9531C24.3672 26.1328 21.25 27.4219 21.25 30C21.25 30.6875 20.6875 31.25 20 31.25C19.3125 31.25 18.75 30.6875 18.75 30C18.75 27.4219 15.6328 26.1328 13.8125 27.9531C13.3282 28.4375 12.5313 28.4375 12.0469 27.9531C11.5625 27.4688 11.5625 26.6719 12.0469 26.1875C13.8672 24.3672 12.5782 21.25 10 21.25C9.31254 21.25 8.75004 20.6875 8.75004 20C8.75004 19.3125 9.31254 18.75 10 18.75C12.5782 18.75 13.8672 15.6328 12.0469 13.8125C11.5625 13.3281 11.5625 12.5312 12.0469 12.0469C12.5313 11.5625 13.3282 11.5625 13.8125 12.0469C15.6328 13.8672 18.75 12.5781 18.75 10C18.75 9.3125 19.3125 8.75 20 8.75ZM18.125 20C19.1641 20 20 19.1641 20 18.125C20 17.0859 19.1641 16.25 18.125 16.25C17.086 16.25 16.25 17.0859 16.25 18.125C16.25 19.1641 17.086 20 18.125 20ZM23.75 22.5C23.75 21.8125 23.1875 21.25 22.5 21.25C21.8125 21.25 21.25 21.8125 21.25 22.5C21.25 23.1875 21.8125 23.75 22.5 23.75C23.1875 23.75 23.75 23.1875 23.75 22.5Z" fill="black"/>
</svg>
