 <svg
            width="150"
            height="122"
            viewBox="0 0 150 122"
            fill="none"
            xmlns="http://www.w3.org/2000/svg"
          >
            <rect width="150" height="122" rx="15" fill="#F9E8E7" />
            <path
              d="M10.7627 85V73.08H15.7707C16.4427 73.08 17.024 73.208 17.5147 73.464C18.016 73.7093 18.4 74.056 18.6667 74.504C18.944 74.952 19.0827 75.4747 19.0827 76.072C19.0827 76.6907 18.928 77.24 18.6187 77.72C18.32 78.1893 17.888 78.5467 17.3227 78.792L17.3067 78.408C17.776 78.5787 18.176 78.8187 18.5067 79.128C18.848 79.4373 19.1094 79.8 19.2907 80.216C19.472 80.6213 19.5627 81.0587 19.5627 81.528C19.5627 82.5947 19.2214 83.4427 18.5387 84.072C17.8667 84.6907 16.9494 85 15.7867 85H10.7627ZM12.0427 83.8H15.7867C16.544 83.8 17.1467 83.6027 17.5947 83.208C18.0534 82.8027 18.2827 82.248 18.2827 81.544C18.2827 80.8507 18.0534 80.3013 17.5947 79.896C17.1467 79.48 16.544 79.272 15.7867 79.272H12.0427V83.8ZM12.0427 78.12H15.6747C16.3147 78.12 16.8267 77.9333 17.2107 77.56C17.6054 77.1867 17.8027 76.7067 17.8027 76.12C17.8027 75.5227 17.6054 75.0693 17.2107 74.76C16.8267 74.44 16.3147 74.28 15.6747 74.28H12.0427V78.12ZM26.4964 85.192C25.6858 85.192 24.9498 85 24.2884 84.616C23.6271 84.2213 23.0991 83.688 22.7044 83.016C22.3204 82.3333 22.1284 81.56 22.1284 80.696C22.1284 79.8427 22.3204 79.08 22.7044 78.408C23.0884 77.736 23.6058 77.208 24.2564 76.824C24.9178 76.4293 25.6644 76.232 26.4964 76.232C27.3284 76.232 28.0698 76.424 28.7204 76.808C29.3818 77.192 29.8991 77.72 30.2724 78.392C30.6564 79.064 30.8484 79.832 30.8484 80.696C30.8484 81.5707 30.6511 82.3493 30.2564 83.032C29.8618 83.704 29.3338 84.232 28.6724 84.616C28.0218 85 27.2964 85.192 26.4964 85.192ZM26.4964 83.992C27.0724 83.992 27.5898 83.848 28.0484 83.56C28.5178 83.272 28.8858 82.8773 29.1524 82.376C29.4298 81.8747 29.5684 81.3147 29.5684 80.696C29.5684 80.0773 29.4298 79.5227 29.1524 79.032C28.8858 78.5413 28.5178 78.152 28.0484 77.864C27.5898 77.576 27.0724 77.432 26.4964 77.432C25.9204 77.432 25.3978 77.576 24.9284 77.864C24.4698 78.152 24.1018 78.5413 23.8244 79.032C23.5471 79.5227 23.4084 80.0773 23.4084 80.696C23.4084 81.3147 23.5471 81.8747 23.8244 82.376C24.1018 82.8773 24.4698 83.272 24.9284 83.56C25.3978 83.848 25.9204 83.992 26.4964 83.992ZM37.7808 85.192C36.9701 85.192 36.2341 85 35.5728 84.616C34.9115 84.2213 34.3835 83.688 33.9888 83.016C33.6048 82.3333 33.4128 81.56 33.4128 80.696C33.4128 79.8427 33.6048 79.08 33.9888 78.408C34.3728 77.736 34.8901 77.208 35.5408 76.824C36.2021 76.4293 36.9488 76.232 37.7808 76.232C38.6128 76.232 39.3541 76.424 40.0048 76.808C40.6661 77.192 41.1835 77.72 41.5568 78.392C41.9408 79.064 42.1328 79.832 42.1328 80.696C42.1328 81.5707 41.9355 82.3493 41.5408 83.032C41.1461 83.704 40.6181 84.232 39.9568 84.616C39.3061 85 38.5808 85.192 37.7808 85.192ZM37.7808 83.992C38.3568 83.992 38.8741 83.848 39.3328 83.56C39.8021 83.272 40.1701 82.8773 40.4368 82.376C40.7141 81.8747 40.8528 81.3147 40.8528 80.696C40.8528 80.0773 40.7141 79.5227 40.4368 79.032C40.1701 78.5413 39.8021 78.152 39.3328 77.864C38.8741 77.576 38.3568 77.432 37.7808 77.432C37.2048 77.432 36.6821 77.576 36.2128 77.864C35.7541 78.152 35.3861 78.5413 35.1088 79.032C34.8315 79.5227 34.6928 80.0773 34.6928 80.696C34.6928 81.3147 34.8315 81.8747 35.1088 82.376C35.3861 82.8773 35.7541 83.272 36.2128 83.56C36.6821 83.848 37.2048 83.992 37.7808 83.992ZM48.0252 85.192C47.2039 85.192 46.4839 84.984 45.8652 84.568C45.2465 84.152 44.7985 83.5867 44.5212 82.872L45.5292 82.392C45.7745 82.9147 46.1159 83.3307 46.5532 83.64C47.0012 83.9493 47.4919 84.104 48.0252 84.104C48.5372 84.104 48.9692 83.9813 49.3212 83.736C49.6732 83.48 49.8492 83.1493 49.8492 82.744C49.8492 82.4453 49.7639 82.2107 49.5932 82.04C49.4225 81.8587 49.2252 81.72 49.0012 81.624C48.7772 81.528 48.5799 81.4587 48.4092 81.416L47.1772 81.064C46.3879 80.84 45.8172 80.5253 45.4652 80.12C45.1132 79.7147 44.9372 79.2453 44.9372 78.712C44.9372 78.2107 45.0652 77.7733 45.3212 77.4C45.5772 77.0267 45.9239 76.7387 46.3612 76.536C46.7985 76.3333 47.2839 76.232 47.8172 76.232C48.5425 76.232 49.1985 76.424 49.7852 76.808C50.3825 77.1813 50.8039 77.704 51.0492 78.376L50.0252 78.856C49.8119 78.376 49.5025 78.0027 49.0972 77.736C48.7025 77.4587 48.2599 77.32 47.7692 77.32C47.2892 77.32 46.9052 77.4427 46.6172 77.688C46.3292 77.9333 46.1852 78.2427 46.1852 78.616C46.1852 78.904 46.2599 79.1333 46.4092 79.304C46.5585 79.4747 46.7292 79.6027 46.9212 79.688C47.1239 79.7733 47.2999 79.8373 47.4492 79.88L48.8732 80.296C49.5665 80.4987 50.1052 80.8133 50.4892 81.24C50.8839 81.6667 51.0812 82.168 51.0812 82.744C51.0812 83.2133 50.9479 83.6347 50.6812 84.008C50.4252 84.3813 50.0679 84.6747 49.6092 84.888C49.1505 85.0907 48.6225 85.192 48.0252 85.192ZM57.2698 85.096C56.5018 85.096 55.9098 84.872 55.4938 84.424C55.0778 83.976 54.8698 83.336 54.8698 82.504V77.624H53.2858V76.424H53.6858C54.0485 76.424 54.3365 76.3067 54.5498 76.072C54.7631 75.8267 54.8698 75.5227 54.8698 75.16V74.44H56.0698V76.424H57.9578V77.624H56.0698V82.504C56.0698 82.792 56.1125 83.048 56.1978 83.272C56.2831 83.4853 56.4271 83.656 56.6298 83.784C56.8431 83.912 57.1258 83.976 57.4778 83.976C57.5631 83.976 57.6645 83.9707 57.7818 83.96C57.8991 83.9493 58.0005 83.9387 58.0858 83.928V85C57.9578 85.032 57.8138 85.0533 57.6538 85.064C57.4938 85.0853 57.3658 85.096 57.2698 85.096ZM63.9689 85.192C63.1476 85.192 62.4276 84.984 61.8089 84.568C61.1903 84.152 60.7423 83.5867 60.4649 82.872L61.4729 82.392C61.7183 82.9147 62.0596 83.3307 62.4969 83.64C62.9449 83.9493 63.4356 84.104 63.9689 84.104C64.4809 84.104 64.9129 83.9813 65.2649 83.736C65.6169 83.48 65.7929 83.1493 65.7929 82.744C65.7929 82.4453 65.7076 82.2107 65.5369 82.04C65.3663 81.8587 65.1689 81.72 64.9449 81.624C64.7209 81.528 64.5236 81.4587 64.3529 81.416L63.1209 81.064C62.3316 80.84 61.7609 80.5253 61.4089 80.12C61.0569 79.7147 60.8809 79.2453 60.8809 78.712C60.8809 78.2107 61.0089 77.7733 61.2649 77.4C61.5209 77.0267 61.8676 76.7387 62.3049 76.536C62.7423 76.3333 63.2276 76.232 63.7609 76.232C64.4863 76.232 65.1423 76.424 65.7289 76.808C66.3263 77.1813 66.7476 77.704 66.9929 78.376L65.9689 78.856C65.7556 78.376 65.4463 78.0027 65.0409 77.736C64.6463 77.4587 64.2036 77.32 63.7129 77.32C63.2329 77.32 62.8489 77.4427 62.5609 77.688C62.2729 77.9333 62.1289 78.2427 62.1289 78.616C62.1289 78.904 62.2036 79.1333 62.3529 79.304C62.5023 79.4747 62.6729 79.6027 62.8649 79.688C63.0676 79.7733 63.2436 79.8373 63.3929 79.88L64.8169 80.296C65.5103 80.4987 66.0489 80.8133 66.4329 81.24C66.8276 81.6667 67.0249 82.168 67.0249 82.744C67.0249 83.2133 66.8916 83.6347 66.6249 84.008C66.3689 84.3813 66.0116 84.6747 65.5529 84.888C65.0943 85.0907 64.5663 85.192 63.9689 85.192ZM73.4523 85V76.424H74.6523V85H73.4523ZM73.4523 74.84V73.08H74.6523V74.84H73.4523ZM77.9086 85V76.424H79.1086V78.056L78.9166 77.816C79.1512 77.3147 79.4979 76.9253 79.9566 76.648C80.4259 76.3707 80.9379 76.232 81.4926 76.232C82.1539 76.232 82.7512 76.4187 83.2846 76.792C83.8179 77.1653 84.1966 77.6507 84.4206 78.248L84.0846 78.264C84.2979 77.6027 84.6659 77.1013 85.1886 76.76C85.7219 76.408 86.3086 76.232 86.9486 76.232C87.5246 76.232 88.0526 76.3707 88.5326 76.648C89.0232 76.9253 89.4126 77.3093 89.7006 77.8C89.9992 78.28 90.1486 78.824 90.1486 79.432V85H88.9486V79.896C88.9486 79.3733 88.8526 78.9307 88.6606 78.568C88.4792 78.2053 88.2286 77.928 87.9086 77.736C87.5886 77.5333 87.2206 77.432 86.8046 77.432C86.3992 77.432 86.0312 77.5333 85.7006 77.736C85.3699 77.928 85.1086 78.2107 84.9166 78.584C84.7246 78.9467 84.6286 79.384 84.6286 79.896V85H83.4286V79.896C83.4286 79.3733 83.3326 78.9307 83.1406 78.568C82.9592 78.2053 82.7086 77.928 82.3886 77.736C82.0686 77.5333 81.7006 77.432 81.2846 77.432C80.8686 77.432 80.4952 77.5333 80.1646 77.736C79.8446 77.928 79.5886 78.2107 79.3966 78.584C79.2046 78.9467 79.1086 79.384 79.1086 79.896V85H77.9086ZM93.2398 85V76.424H94.4398V78.056L94.2478 77.816C94.4825 77.3147 94.8291 76.9253 95.2878 76.648C95.7571 76.3707 96.2691 76.232 96.8238 76.232C97.4851 76.232 98.0825 76.4187 98.6158 76.792C99.1491 77.1653 99.5278 77.6507 99.7518 78.248L99.4158 78.264C99.6291 77.6027 99.9971 77.1013 100.52 76.76C101.053 76.408 101.64 76.232 102.28 76.232C102.856 76.232 103.384 76.3707 103.864 76.648C104.354 76.9253 104.744 77.3093 105.032 77.8C105.33 78.28 105.48 78.824 105.48 79.432V85H104.28V79.896C104.28 79.3733 104.184 78.9307 103.992 78.568C103.81 78.2053 103.56 77.928 103.24 77.736C102.92 77.5333 102.552 77.432 102.136 77.432C101.73 77.432 101.362 77.5333 101.032 77.736C100.701 77.928 100.44 78.2107 100.248 78.584C100.056 78.9467 99.9598 79.384 99.9598 79.896V85H98.7598V79.896C98.7598 79.3733 98.6638 78.9307 98.4718 78.568C98.2905 78.2053 98.0398 77.928 97.7198 77.736C97.3998 77.5333 97.0318 77.432 96.6158 77.432C96.1998 77.432 95.8265 77.5333 95.4958 77.736C95.1758 77.928 94.9198 78.2107 94.7278 78.584C94.5358 78.9467 94.4398 79.384 94.4398 79.896V85H93.2398ZM111.611 85.192C111.014 85.192 110.47 85.0533 109.979 84.776C109.488 84.488 109.099 84.0933 108.811 83.592C108.534 83.08 108.395 82.4933 108.395 81.832V76.424H109.595V81.688C109.595 82.1467 109.686 82.552 109.867 82.904C110.059 83.2453 110.32 83.512 110.651 83.704C110.992 83.896 111.382 83.992 111.819 83.992C112.256 83.992 112.646 83.896 112.987 83.704C113.328 83.5013 113.595 83.2187 113.787 82.856C113.979 82.4827 114.075 82.04 114.075 81.528V76.424H115.275V85H114.075V83.336L114.347 83.4C114.144 83.9547 113.798 84.392 113.307 84.712C112.816 85.032 112.251 85.192 111.611 85.192ZM118.543 85V76.424H119.743V78.088L119.471 78.024C119.684 77.4693 120.031 77.032 120.511 76.712C121.002 76.392 121.567 76.232 122.207 76.232C122.815 76.232 123.359 76.3707 123.839 76.648C124.33 76.9253 124.714 77.3093 124.991 77.8C125.279 78.28 125.423 78.824 125.423 79.432V85H124.223V79.896C124.223 79.3733 124.127 78.9307 123.935 78.568C123.754 78.2053 123.492 77.928 123.151 77.736C122.82 77.5333 122.436 77.432 121.999 77.432C121.562 77.432 121.172 77.5333 120.831 77.736C120.49 77.928 120.223 78.2107 120.031 78.584C119.839 78.9467 119.743 79.384 119.743 79.896V85H118.543ZM132.419 85.192C131.619 85.192 130.893 85 130.243 84.616C129.603 84.2213 129.096 83.6827 128.723 83C128.349 82.3173 128.163 81.544 128.163 80.68C128.163 79.816 128.344 79.0533 128.707 78.392C129.069 77.72 129.56 77.192 130.179 76.808C130.808 76.424 131.512 76.232 132.291 76.232C132.909 76.232 133.459 76.3493 133.939 76.584C134.429 76.808 134.845 77.1173 135.187 77.512C135.528 77.896 135.789 78.3333 135.971 78.824C136.152 79.304 136.243 79.8 136.243 80.312C136.243 80.4187 136.237 80.5413 136.227 80.68C136.216 80.808 136.2 80.9413 136.179 81.08H128.931V79.96H135.491L134.915 80.44C135.011 79.8533 134.941 79.3307 134.707 78.872C134.483 78.4027 134.157 78.0347 133.731 77.768C133.304 77.4907 132.824 77.352 132.291 77.352C131.757 77.352 131.261 77.4907 130.803 77.768C130.355 78.0453 130.003 78.4347 129.747 78.936C129.491 79.4267 129.389 80.0133 129.443 80.696C129.389 81.3787 129.496 81.976 129.763 82.488C130.04 82.9893 130.413 83.3787 130.883 83.656C131.363 83.9333 131.875 84.072 132.419 84.072C133.048 84.072 133.576 83.9227 134.003 83.624C134.429 83.3253 134.776 82.952 135.043 82.504L136.067 83.048C135.896 83.432 135.635 83.7893 135.283 84.12C134.931 84.44 134.509 84.7013 134.019 84.904C133.539 85.096 133.005 85.192 132.419 85.192ZM49.7236 105.192C48.9023 105.192 48.1823 104.984 47.5636 104.568C46.945 104.152 46.497 103.587 46.2196 102.872L47.2276 102.392C47.473 102.915 47.8143 103.331 48.2516 103.64C48.6996 103.949 49.1903 104.104 49.7236 104.104C50.2356 104.104 50.6676 103.981 51.0196 103.736C51.3716 103.48 51.5476 103.149 51.5476 102.744C51.5476 102.445 51.4623 102.211 51.2916 102.04C51.121 101.859 50.9236 101.72 50.6996 101.624C50.4756 101.528 50.2783 101.459 50.1076 101.416L48.8756 101.064C48.0863 100.84 47.5156 100.525 47.1636 100.12C46.8116 99.7147 46.6356 99.2453 46.6356 98.712C46.6356 98.2107 46.7636 97.7733 47.0196 97.4C47.2756 97.0267 47.6223 96.7387 48.0596 96.536C48.497 96.3333 48.9823 96.232 49.5156 96.232C50.241 96.232 50.897 96.424 51.4836 96.808C52.081 97.1813 52.5023 97.704 52.7476 98.376L51.7236 98.856C51.5103 98.376 51.201 98.0027 50.7956 97.736C50.401 97.4587 49.9583 97.32 49.4676 97.32C48.9876 97.32 48.6036 97.4427 48.3156 97.688C48.0276 97.9333 47.8836 98.2427 47.8836 98.616C47.8836 98.904 47.9583 99.1333 48.1076 99.304C48.257 99.4747 48.4276 99.6027 48.6196 99.688C48.8223 99.7733 48.9983 99.8373 49.1476 99.88L50.5716 100.296C51.265 100.499 51.8036 100.813 52.1876 101.24C52.5823 101.667 52.7796 102.168 52.7796 102.744C52.7796 103.213 52.6463 103.635 52.3796 104.008C52.1236 104.381 51.7663 104.675 51.3076 104.888C50.849 105.091 50.321 105.192 49.7236 105.192ZM55.708 108.52C55.5373 108.52 55.3613 108.504 55.18 108.472C55.0093 108.451 54.8387 108.408 54.668 108.344V107.224C54.7747 107.235 54.908 107.251 55.068 107.272C55.2387 107.304 55.4093 107.32 55.58 107.32C56.1027 107.32 56.5027 107.208 56.78 106.984C57.0573 106.771 57.3293 106.355 57.596 105.736L58.14 104.456L58.108 105.512L54.476 96.424H55.772L58.748 103.928H58.412L61.372 96.424H62.7L58.78 106.088C58.6093 106.504 58.3907 106.899 58.124 107.272C57.868 107.645 57.5427 107.944 57.148 108.168C56.7533 108.403 56.2733 108.52 55.708 108.52ZM67.8861 105.192C67.0648 105.192 66.3448 104.984 65.7261 104.568C65.1075 104.152 64.6595 103.587 64.3821 102.872L65.3901 102.392C65.6355 102.915 65.9768 103.331 66.4141 103.64C66.8621 103.949 67.3528 104.104 67.8861 104.104C68.3981 104.104 68.8301 103.981 69.1821 103.736C69.5341 103.48 69.7101 103.149 69.7101 102.744C69.7101 102.445 69.6248 102.211 69.4541 102.04C69.2835 101.859 69.0861 101.72 68.8621 101.624C68.6381 101.528 68.4408 101.459 68.2701 101.416L67.0381 101.064C66.2488 100.84 65.6781 100.525 65.3261 100.12C64.9741 99.7147 64.7981 99.2453 64.7981 98.712C64.7981 98.2107 64.9261 97.7733 65.1821 97.4C65.4381 97.0267 65.7848 96.7387 66.2221 96.536C66.6595 96.3333 67.1448 96.232 67.6781 96.232C68.4035 96.232 69.0595 96.424 69.6461 96.808C70.2435 97.1813 70.6648 97.704 70.9101 98.376L69.8861 98.856C69.6728 98.376 69.3635 98.0027 68.9581 97.736C68.5635 97.4587 68.1208 97.32 67.6301 97.32C67.1501 97.32 66.7661 97.4427 66.4781 97.688C66.1901 97.9333 66.0461 98.2427 66.0461 98.616C66.0461 98.904 66.1208 99.1333 66.2701 99.304C66.4195 99.4747 66.5901 99.6027 66.7821 99.688C66.9848 99.7733 67.1608 99.8373 67.3101 99.88L68.7341 100.296C69.4275 100.499 69.9661 100.813 70.3501 101.24C70.7448 101.667 70.9421 102.168 70.9421 102.744C70.9421 103.213 70.8088 103.635 70.5421 104.008C70.2861 104.381 69.9288 104.675 69.4701 104.888C69.0115 105.091 68.4835 105.192 67.8861 105.192ZM77.1308 105.096C76.3628 105.096 75.7708 104.872 75.3548 104.424C74.9388 103.976 74.7308 103.336 74.7308 102.504V97.624H73.1468V96.424H73.5468C73.9094 96.424 74.1974 96.3067 74.4108 96.072C74.6241 95.8267 74.7308 95.5227 74.7308 95.16V94.44H75.9308V96.424H77.8188V97.624H75.9308V102.504C75.9308 102.792 75.9734 103.048 76.0588 103.272C76.1441 103.485 76.2881 103.656 76.4908 103.784C76.7041 103.912 76.9868 103.976 77.3388 103.976C77.4241 103.976 77.5254 103.971 77.6428 103.96C77.7601 103.949 77.8614 103.939 77.9468 103.928V105C77.8188 105.032 77.6748 105.053 77.5148 105.064C77.3548 105.085 77.2268 105.096 77.1308 105.096ZM84.4454 105.192C83.6454 105.192 82.92 105 82.2694 104.616C81.6294 104.221 81.1227 103.683 80.7494 103C80.376 102.317 80.1894 101.544 80.1894 100.68C80.1894 99.816 80.3707 99.0533 80.7334 98.392C81.096 97.72 81.5867 97.192 82.2054 96.808C82.8347 96.424 83.5387 96.232 84.3174 96.232C84.936 96.232 85.4854 96.3493 85.9654 96.584C86.456 96.808 86.872 97.1173 87.2134 97.512C87.5547 97.896 87.816 98.3333 87.9974 98.824C88.1787 99.304 88.2694 99.8 88.2694 100.312C88.2694 100.419 88.264 100.541 88.2534 100.68C88.2427 100.808 88.2267 100.941 88.2054 101.08H80.9574V99.96H87.5174L86.9414 100.44C87.0374 99.8533 86.968 99.3307 86.7334 98.872C86.5094 98.4027 86.184 98.0347 85.7574 97.768C85.3307 97.4907 84.8507 97.352 84.3174 97.352C83.784 97.352 83.288 97.4907 82.8294 97.768C82.3814 98.0453 82.0294 98.4347 81.7734 98.936C81.5174 99.4267 81.416 100.013 81.4694 100.696C81.416 101.379 81.5227 101.976 81.7894 102.488C82.0667 102.989 82.44 103.379 82.9094 103.656C83.3894 103.933 83.9014 104.072 84.4454 104.072C85.0747 104.072 85.6027 103.923 86.0294 103.624C86.456 103.325 86.8027 102.952 87.0694 102.504L88.0934 103.048C87.9227 103.432 87.6614 103.789 87.3094 104.12C86.9574 104.44 86.536 104.701 86.0454 104.904C85.5654 105.096 85.032 105.192 84.4454 105.192ZM91.1851 105V96.424H92.3851V98.056L92.1931 97.816C92.4278 97.3147 92.7745 96.9253 93.2331 96.648C93.7025 96.3707 94.2145 96.232 94.7691 96.232C95.4305 96.232 96.0278 96.4187 96.5611 96.792C97.0945 97.1653 97.4731 97.6507 97.6971 98.248L97.3611 98.264C97.5745 97.6027 97.9425 97.1013 98.4651 96.76C98.9985 96.408 99.5851 96.232 100.225 96.232C100.801 96.232 101.329 96.3707 101.809 96.648C102.3 96.9253 102.689 97.3093 102.977 97.8C103.276 98.28 103.425 98.824 103.425 99.432V105H102.225V99.896C102.225 99.3733 102.129 98.9307 101.937 98.568C101.756 98.2053 101.505 97.928 101.185 97.736C100.865 97.5333 100.497 97.432 100.081 97.432C99.6758 97.432 99.3078 97.5333 98.9771 97.736C98.6465 97.928 98.3851 98.2107 98.1931 98.584C98.0011 98.9467 97.9051 99.384 97.9051 99.896V105H96.7051V99.896C96.7051 99.3733 96.6091 98.9307 96.4171 98.568C96.2358 98.2053 95.9851 97.928 95.6651 97.736C95.3451 97.5333 94.9771 97.432 94.5611 97.432C94.1451 97.432 93.7718 97.5333 93.4411 97.736C93.1211 97.928 92.8651 98.2107 92.6731 98.584C92.4811 98.9467 92.3851 99.384 92.3851 99.896V105H91.1851Z"
              fill="#0B0A0C"
            />
            <path
              d="M76.3846 16.2734C75.9804 16.0943 75.5474 16 75.0951 16C74.6428 16 74.2098 16.0943 73.8056 16.2734L55.6856 23.8052C53.5686 24.6819 51.9904 26.7274 52 29.1972C52.0482 38.5483 55.9743 55.6575 72.5546 63.4344C74.1617 64.1885 76.0285 64.1885 77.6355 63.4344C94.2159 55.6575 98.142 38.5483 98.1901 29.1972C98.1998 26.7274 96.6216 24.6819 94.5046 23.8052L76.3846 16.2734ZM64.3174 36.861C64.3174 33.6748 66.9541 31.0825 70.2163 31.0825C71.7752 31.0825 73.2764 31.6952 74.383 32.7698L75.0951 33.4674L75.8072 32.7698C76.9138 31.6858 78.415 31.0825 79.9739 31.0825C83.2265 31.0825 85.8728 33.6654 85.8728 36.861C85.8728 38.3881 85.2473 39.8586 84.1503 40.9427L76.1921 48.7384C75.5955 49.3229 74.6139 49.3229 74.0173 48.7384L66.0592 40.9427C64.9525 39.8586 64.3366 38.3881 64.3366 36.861H64.3174Z"
              fill="#0B0A0C"
            />
          </svg>