 <svg
            width="150"
            height="122"
            viewBox="0 0 150 122"
            fill="none"
            xmlns="http://www.w3.org/2000/svg"
          >
            <rect width="150" height="122" rx="15" fill="#F9E8E7" />
            <path
              d="M78.4361 14C64.9334 14 54 24.7464 54 38C54 51.2536 64.9334 62 78.4361 62C85.0618 62 91.0642 59.4071 95.4703 55.2071C96.017 54.6821 96.1591 53.8679 95.8093 53.2036C95.4594 52.5393 94.705 52.1643 93.9506 52.2929C92.8791 52.475 91.7858 52.5714 90.6596 52.5714C80.0652 52.5714 71.4716 44.1286 71.4716 33.7143C71.4716 26.6643 75.4076 20.525 81.2351 17.2893C81.902 16.9143 82.2409 16.1643 82.0769 15.4357C81.9129 14.7071 81.2788 14.1607 80.5135 14.0964C79.8247 14.0429 79.1359 14.0107 78.4361 14.0107V14Z"
              fill="#0B0A0C"
            />
            <path
              d="M38.0455 85V73.08H39.3255V85H38.0455ZM42.7633 85V76.424H43.9633V78.056L43.7713 77.816C44.0059 77.3147 44.3526 76.9253 44.8113 76.648C45.2806 76.3707 45.7926 76.232 46.3473 76.232C47.0086 76.232 47.6059 76.4187 48.1393 76.792C48.6726 77.1653 49.0513 77.6507 49.2753 78.248L48.9393 78.264C49.1526 77.6027 49.5206 77.1013 50.0433 76.76C50.5766 76.408 51.1633 76.232 51.8033 76.232C52.3793 76.232 52.9073 76.3707 53.3873 76.648C53.8779 76.9253 54.2673 77.3093 54.5553 77.8C54.8539 78.28 55.0033 78.824 55.0033 79.432V85H53.8033V79.896C53.8033 79.3733 53.7073 78.9307 53.5153 78.568C53.3339 78.2053 53.0833 77.928 52.7633 77.736C52.4433 77.5333 52.0753 77.432 51.6593 77.432C51.2539 77.432 50.8859 77.5333 50.5553 77.736C50.2246 77.928 49.9633 78.2107 49.7713 78.584C49.5793 78.9467 49.4833 79.384 49.4833 79.896V85H48.2833V79.896C48.2833 79.3733 48.1873 78.9307 47.9953 78.568C47.8139 78.2053 47.5633 77.928 47.2433 77.736C46.9233 77.5333 46.5553 77.432 46.1393 77.432C45.7233 77.432 45.3499 77.5333 45.0193 77.736C44.6993 77.928 44.4433 78.2107 44.2513 78.584C44.0593 78.9467 43.9633 79.384 43.9633 79.896V85H42.7633ZM58.0945 88.2V76.424H59.2945V78.344L59.1025 78.008C59.4438 77.464 59.8972 77.032 60.4625 76.712C61.0385 76.392 61.6945 76.232 62.4305 76.232C63.2412 76.232 63.9612 76.4293 64.5905 76.824C65.2305 77.208 65.7318 77.736 66.0945 78.408C66.4678 79.08 66.6545 79.848 66.6545 80.712C66.6545 81.5653 66.4678 82.3333 66.0945 83.016C65.7318 83.688 65.2305 84.2213 64.5905 84.616C63.9612 85 63.2412 85.192 62.4305 85.192C61.6945 85.192 61.0278 85.0267 60.4305 84.696C59.8438 84.3547 59.4012 83.8747 59.1025 83.256L59.2945 83.08V88.2H58.0945ZM62.3665 83.992C62.9425 83.992 63.4545 83.848 63.9025 83.56C64.3612 83.272 64.7185 82.8827 64.9745 82.392C65.2412 81.8907 65.3745 81.3307 65.3745 80.712C65.3745 80.0827 65.2412 79.5227 64.9745 79.032C64.7185 78.5413 64.3612 78.152 63.9025 77.864C63.4545 77.576 62.9425 77.432 62.3665 77.432C61.7905 77.432 61.2678 77.576 60.7985 77.864C60.3398 78.152 59.9718 78.5467 59.6945 79.048C59.4278 79.5387 59.2945 80.0933 59.2945 80.712C59.2945 81.3307 59.4278 81.8907 59.6945 82.392C59.9718 82.8827 60.3398 83.272 60.7985 83.56C61.2678 83.848 61.7905 83.992 62.3665 83.992ZM69.5664 85V76.424H70.7664V77.832L70.6064 77.624C70.809 77.2187 71.113 76.8987 71.5184 76.664C71.9344 76.4293 72.4357 76.312 73.0224 76.312H73.5664V77.512H72.8144C72.1957 77.512 71.6997 77.704 71.3264 78.088C70.953 78.472 70.7664 79.016 70.7664 79.72V85H69.5664ZM79.7886 85.192C78.978 85.192 78.242 85 77.5806 84.616C76.9193 84.2213 76.3913 83.688 75.9966 83.016C75.6126 82.3333 75.4206 81.56 75.4206 80.696C75.4206 79.8427 75.6126 79.08 75.9966 78.408C76.3806 77.736 76.898 77.208 77.5486 76.824C78.21 76.4293 78.9566 76.232 79.7886 76.232C80.6206 76.232 81.362 76.424 82.0126 76.808C82.674 77.192 83.1913 77.72 83.5646 78.392C83.9486 79.064 84.1406 79.832 84.1406 80.696C84.1406 81.5707 83.9433 82.3493 83.5486 83.032C83.154 83.704 82.626 84.232 81.9646 84.616C81.314 85 80.5886 85.192 79.7886 85.192ZM79.7886 83.992C80.3646 83.992 80.882 83.848 81.3406 83.56C81.81 83.272 82.178 82.8773 82.4446 82.376C82.722 81.8747 82.8606 81.3147 82.8606 80.696C82.8606 80.0773 82.722 79.5227 82.4446 79.032C82.178 78.5413 81.81 78.152 81.3406 77.864C80.882 77.576 80.3646 77.432 79.7886 77.432C79.2126 77.432 78.69 77.576 78.2206 77.864C77.762 78.152 77.394 78.5413 77.1166 79.032C76.8393 79.5227 76.7006 80.0773 76.7006 80.696C76.7006 81.3147 76.8393 81.8747 77.1166 82.376C77.394 82.8773 77.762 83.272 78.2206 83.56C78.69 83.848 79.2126 83.992 79.7886 83.992ZM89.1888 85L85.8448 76.424H87.1888L90.0048 83.944H89.5728L92.4048 76.424H93.7648L90.3888 85H89.1888ZM99.7141 85.192C98.9141 85.192 98.1888 85 97.5381 84.616C96.8981 84.2213 96.3915 83.6827 96.0181 83C95.6448 82.3173 95.4581 81.544 95.4581 80.68C95.4581 79.816 95.6395 79.0533 96.0021 78.392C96.3648 77.72 96.8555 77.192 97.4741 76.808C98.1035 76.424 98.8075 76.232 99.5861 76.232C100.205 76.232 100.754 76.3493 101.234 76.584C101.725 76.808 102.141 77.1173 102.482 77.512C102.823 77.896 103.085 78.3333 103.266 78.824C103.447 79.304 103.538 79.8 103.538 80.312C103.538 80.4187 103.533 80.5413 103.522 80.68C103.511 80.808 103.495 80.9413 103.474 81.08H96.2261V79.96H102.786L102.21 80.44C102.306 79.8533 102.237 79.3307 102.002 78.872C101.778 78.4027 101.453 78.0347 101.026 77.768C100.599 77.4907 100.119 77.352 99.5861 77.352C99.0528 77.352 98.5568 77.4907 98.0981 77.768C97.6501 78.0453 97.2981 78.4347 97.0421 78.936C96.7861 79.4267 96.6848 80.0133 96.7381 80.696C96.6848 81.3787 96.7915 81.976 97.0581 82.488C97.3355 82.9893 97.7088 83.3787 98.1781 83.656C98.6581 83.9333 99.1701 84.072 99.7141 84.072C100.343 84.072 100.871 83.9227 101.298 83.624C101.725 83.3253 102.071 82.952 102.338 82.504L103.362 83.048C103.191 83.432 102.93 83.7893 102.578 84.12C102.226 84.44 101.805 84.7013 101.314 84.904C100.834 85.096 100.301 85.192 99.7141 85.192ZM109.43 85.192C108.609 85.192 107.889 84.984 107.27 84.568C106.651 84.152 106.203 83.5867 105.926 82.872L106.934 82.392C107.179 82.9147 107.521 83.3307 107.958 83.64C108.406 83.9493 108.897 84.104 109.43 84.104C109.942 84.104 110.374 83.9813 110.726 83.736C111.078 83.48 111.254 83.1493 111.254 82.744C111.254 82.4453 111.169 82.2107 110.998 82.04C110.827 81.8587 110.63 81.72 110.406 81.624C110.182 81.528 109.985 81.4587 109.814 81.416L108.582 81.064C107.793 80.84 107.222 80.5253 106.87 80.12C106.518 79.7147 106.342 79.2453 106.342 78.712C106.342 78.2107 106.47 77.7733 106.726 77.4C106.982 77.0267 107.329 76.7387 107.766 76.536C108.203 76.3333 108.689 76.232 109.222 76.232C109.947 76.232 110.603 76.424 111.19 76.808C111.787 77.1813 112.209 77.704 112.454 78.376L111.43 78.856C111.217 78.376 110.907 78.0027 110.502 77.736C110.107 77.4587 109.665 77.32 109.174 77.32C108.694 77.32 108.31 77.4427 108.022 77.688C107.734 77.9333 107.59 78.2427 107.59 78.616C107.59 78.904 107.665 79.1333 107.814 79.304C107.963 79.4747 108.134 79.6027 108.326 79.688C108.529 79.7733 108.705 79.8373 108.854 79.88L110.278 80.296C110.971 80.4987 111.51 80.8133 111.894 81.24C112.289 81.6667 112.486 82.168 112.486 82.744C112.486 83.2133 112.353 83.6347 112.086 84.008C111.83 84.3813 111.473 84.6747 111.014 84.888C110.555 85.0907 110.027 85.192 109.43 85.192ZM56.5299 105.192C55.7085 105.192 54.9885 104.984 54.3699 104.568C53.7512 104.152 53.3032 103.587 53.0259 102.872L54.0339 102.392C54.2792 102.915 54.6205 103.331 55.0579 103.64C55.5059 103.949 55.9965 104.104 56.5299 104.104C57.0419 104.104 57.4739 103.981 57.8259 103.736C58.1779 103.48 58.3539 103.149 58.3539 102.744C58.3539 102.445 58.2685 102.211 58.0979 102.04C57.9272 101.859 57.7299 101.72 57.5059 101.624C57.2819 101.528 57.0845 101.459 56.9139 101.416L55.6819 101.064C54.8925 100.84 54.3219 100.525 53.9699 100.12C53.6179 99.7147 53.4419 99.2453 53.4419 98.712C53.4419 98.2107 53.5699 97.7733 53.8259 97.4C54.0819 97.0267 54.4285 96.7387 54.8659 96.536C55.3032 96.3333 55.7885 96.232 56.3219 96.232C57.0472 96.232 57.7032 96.424 58.2899 96.808C58.8872 97.1813 59.3085 97.704 59.5539 98.376L58.5299 98.856C58.3165 98.376 58.0072 98.0027 57.6019 97.736C57.2072 97.4587 56.7645 97.32 56.2739 97.32C55.7939 97.32 55.4099 97.4427 55.1219 97.688C54.8339 97.9333 54.6899 98.2427 54.6899 98.616C54.6899 98.904 54.7645 99.1333 54.9139 99.304C55.0632 99.4747 55.2339 99.6027 55.4259 99.688C55.6285 99.7733 55.8045 99.8373 55.9539 99.88L57.3779 100.296C58.0712 100.499 58.6099 100.813 58.9939 101.24C59.3885 101.667 59.5859 102.168 59.5859 102.744C59.5859 103.213 59.4525 103.635 59.1859 104.008C58.9299 104.381 58.5725 104.675 58.1139 104.888C57.6552 105.091 57.1272 105.192 56.5299 105.192ZM62.4945 105V92.888H63.6945V105H62.4945ZM70.8548 105.192C70.0548 105.192 69.3294 105 68.6788 104.616C68.0388 104.221 67.5321 103.683 67.1588 103C66.7854 102.317 66.5988 101.544 66.5988 100.68C66.5988 99.816 66.7801 99.0533 67.1428 98.392C67.5054 97.72 67.9961 97.192 68.6148 96.808C69.2441 96.424 69.9481 96.232 70.7268 96.232C71.3454 96.232 71.8948 96.3493 72.3748 96.584C72.8654 96.808 73.2814 97.1173 73.6228 97.512C73.9641 97.896 74.2254 98.3333 74.4068 98.824C74.5881 99.304 74.6788 99.8 74.6788 100.312C74.6788 100.419 74.6734 100.541 74.6628 100.68C74.6521 100.808 74.6361 100.941 74.6148 101.08H67.3668V99.96H73.9268L73.3508 100.44C73.4468 99.8533 73.3774 99.3307 73.1428 98.872C72.9188 98.4027 72.5934 98.0347 72.1668 97.768C71.7401 97.4907 71.2601 97.352 70.7268 97.352C70.1934 97.352 69.6974 97.4907 69.2388 97.768C68.7908 98.0453 68.4388 98.4347 68.1828 98.936C67.9268 99.4267 67.8254 100.013 67.8788 100.696C67.8254 101.379 67.9321 101.976 68.1988 102.488C68.4761 102.989 68.8494 103.379 69.3188 103.656C69.7988 103.933 70.3108 104.072 70.8548 104.072C71.4841 104.072 72.0121 103.923 72.4388 103.624C72.8654 103.325 73.2121 102.952 73.4788 102.504L74.5028 103.048C74.3321 103.432 74.0708 103.789 73.7188 104.12C73.3668 104.44 72.9454 104.701 72.4548 104.904C71.9748 105.096 71.4414 105.192 70.8548 105.192ZM81.4985 105.192C80.6985 105.192 79.9732 105 79.3225 104.616C78.6825 104.221 78.1758 103.683 77.8025 103C77.4292 102.317 77.2425 101.544 77.2425 100.68C77.2425 99.816 77.4238 99.0533 77.7865 98.392C78.1492 97.72 78.6398 97.192 79.2585 96.808C79.8878 96.424 80.5918 96.232 81.3705 96.232C81.9892 96.232 82.5385 96.3493 83.0185 96.584C83.5092 96.808 83.9252 97.1173 84.2665 97.512C84.6078 97.896 84.8692 98.3333 85.0505 98.824C85.2318 99.304 85.3225 99.8 85.3225 100.312C85.3225 100.419 85.3172 100.541 85.3065 100.68C85.2958 100.808 85.2798 100.941 85.2585 101.08H78.0105V99.96H84.5705L83.9945 100.44C84.0905 99.8533 84.0212 99.3307 83.7865 98.872C83.5625 98.4027 83.2372 98.0347 82.8105 97.768C82.3838 97.4907 81.9038 97.352 81.3705 97.352C80.8372 97.352 80.3412 97.4907 79.8825 97.768C79.4345 98.0453 79.0825 98.4347 78.8265 98.936C78.5705 99.4267 78.4692 100.013 78.5225 100.696C78.4692 101.379 78.5758 101.976 78.8425 102.488C79.1198 102.989 79.4932 103.379 79.9625 103.656C80.4425 103.933 80.9545 104.072 81.4985 104.072C82.1278 104.072 82.6558 103.923 83.0825 103.624C83.5092 103.325 83.8558 102.952 84.1225 102.504L85.1465 103.048C84.9758 103.432 84.7145 103.789 84.3625 104.12C84.0105 104.44 83.5892 104.701 83.0985 104.904C82.6185 105.096 82.0852 105.192 81.4985 105.192ZM88.2382 108.2V96.424H89.4382V98.344L89.2462 98.008C89.5876 97.464 90.0409 97.032 90.6062 96.712C91.1822 96.392 91.8382 96.232 92.5742 96.232C93.3849 96.232 94.1049 96.4293 94.7342 96.824C95.3742 97.208 95.8756 97.736 96.2382 98.408C96.6116 99.08 96.7982 99.848 96.7982 100.712C96.7982 101.565 96.6116 102.333 96.2382 103.016C95.8756 103.688 95.3742 104.221 94.7342 104.616C94.1049 105 93.3849 105.192 92.5742 105.192C91.8382 105.192 91.1716 105.027 90.5742 104.696C89.9876 104.355 89.5449 103.875 89.2462 103.256L89.4382 103.08V108.2H88.2382ZM92.5102 103.992C93.0862 103.992 93.5982 103.848 94.0462 103.56C94.5049 103.272 94.8622 102.883 95.1182 102.392C95.3849 101.891 95.5182 101.331 95.5182 100.712C95.5182 100.083 95.3849 99.5227 95.1182 99.032C94.8622 98.5413 94.5049 98.152 94.0462 97.864C93.5982 97.576 93.0862 97.432 92.5102 97.432C91.9342 97.432 91.4116 97.576 90.9422 97.864C90.4836 98.152 90.1156 98.5467 89.8382 99.048C89.5716 99.5387 89.4382 100.093 89.4382 100.712C89.4382 101.331 89.5716 101.891 89.8382 102.392C90.1156 102.883 90.4836 103.272 90.9422 103.56C91.4116 103.848 91.9342 103.992 92.5102 103.992Z"
              fill="#0B0A0C"
            />
          </svg>