<svg
            width="150"
            height="122"
            viewBox="0 0 150 122"
            fill="none"
            xmlns="http://www.w3.org/2000/svg"
          >
            <rect width="150" height="122" rx="15" fill="#F9E8E7" />
            <path
              d="M36.5846 85V73.08H44.2646V74.28H37.8646V78.424H43.9446V79.624H37.8646V83.8H44.2646V85H36.5846ZM47.0054 85V76.424H48.2054V78.088L47.9334 78.024C48.1468 77.4693 48.4934 77.032 48.9734 76.712C49.4641 76.392 50.0294 76.232 50.6694 76.232C51.2774 76.232 51.8214 76.3707 52.3014 76.648C52.7921 76.9253 53.1761 77.3093 53.4534 77.8C53.7414 78.28 53.8854 78.824 53.8854 79.432V85H52.6854V79.896C52.6854 79.3733 52.5894 78.9307 52.3974 78.568C52.2161 78.2053 51.9548 77.928 51.6134 77.736C51.2828 77.5333 50.8988 77.432 50.4614 77.432C50.0241 77.432 49.6348 77.5333 49.2934 77.736C48.9521 77.928 48.6854 78.2107 48.4934 78.584C48.3014 78.9467 48.2054 79.384 48.2054 79.896V85H47.0054ZM56.9773 85V72.888H58.1773V78.088L57.9053 78.024C58.1186 77.4693 58.4653 77.032 58.9453 76.712C59.436 76.392 60.0013 76.232 60.6413 76.232C61.2493 76.232 61.7933 76.3707 62.2733 76.648C62.764 76.9253 63.148 77.3093 63.4253 77.8C63.7133 78.28 63.8573 78.824 63.8573 79.432V85H62.6573V79.896C62.6573 79.3733 62.5613 78.9307 62.3693 78.568C62.1773 78.2053 61.9106 77.928 61.5693 77.736C61.2386 77.5333 60.86 77.432 60.4333 77.432C60.0066 77.432 59.6226 77.5333 59.2813 77.736C58.94 77.928 58.668 78.2107 58.4653 78.584C58.2733 78.9467 58.1773 79.384 58.1773 79.896V85H56.9773ZM69.4292 85.192C68.8852 85.192 68.3999 85.0907 67.9732 84.888C67.5465 84.6747 67.2105 84.3867 66.9652 84.024C66.7199 83.6613 66.5972 83.2453 66.5972 82.776C66.5972 82.328 66.6932 81.9227 66.8852 81.56C67.0772 81.1867 67.3759 80.872 67.7812 80.616C68.1865 80.36 68.7039 80.1787 69.3332 80.072L72.6932 79.512V80.6L69.6212 81.112C69.0025 81.2187 68.5545 81.416 68.2772 81.704C68.0105 81.992 67.8772 82.3333 67.8772 82.728C67.8772 83.112 68.0265 83.4373 68.3252 83.704C68.6345 83.9707 69.0292 84.104 69.5092 84.104C70.0959 84.104 70.6079 83.9813 71.0452 83.736C71.4825 83.48 71.8239 83.1387 72.0692 82.712C72.3145 82.2853 72.4372 81.8107 72.4372 81.288V79.112C72.4372 78.6 72.2505 78.184 71.8772 77.864C71.5039 77.544 71.0185 77.384 70.4212 77.384C69.8985 77.384 69.4399 77.5173 69.0452 77.784C68.6505 78.04 68.3572 78.376 68.1652 78.792L67.0772 78.2C67.2372 77.8373 67.4879 77.5067 67.8292 77.208C68.1812 76.9093 68.5812 76.6747 69.0292 76.504C69.4772 76.3227 69.9412 76.232 70.4212 76.232C71.0505 76.232 71.6052 76.3547 72.0852 76.6C72.5759 76.8453 72.9545 77.1867 73.2212 77.624C73.4985 78.0507 73.6372 78.5467 73.6372 79.112V85H72.4372V83.288L72.6132 83.464C72.4639 83.784 72.2292 84.0773 71.9092 84.344C71.5999 84.6 71.2319 84.808 70.8052 84.968C70.3892 85.1173 69.9305 85.192 69.4292 85.192ZM76.9054 85V76.424H78.1054V78.088L77.8334 78.024C78.0468 77.4693 78.3934 77.032 78.8734 76.712C79.3641 76.392 79.9294 76.232 80.5694 76.232C81.1774 76.232 81.7214 76.3707 82.2014 76.648C82.6921 76.9253 83.0761 77.3093 83.3534 77.8C83.6414 78.28 83.7854 78.824 83.7854 79.432V85H82.5854V79.896C82.5854 79.3733 82.4894 78.9307 82.2974 78.568C82.1161 78.2053 81.8548 77.928 81.5134 77.736C81.1828 77.5333 80.7988 77.432 80.3614 77.432C79.9241 77.432 79.5348 77.5333 79.1934 77.736C78.8521 77.928 78.5854 78.2107 78.3934 78.584C78.2014 78.9467 78.1054 79.384 78.1054 79.896V85H76.9054ZM90.7973 85.192C89.9546 85.192 89.2133 84.9947 88.5733 84.6C87.9333 84.2053 87.432 83.672 87.0693 83C86.7066 82.3173 86.5253 81.5493 86.5253 80.696C86.5253 79.8427 86.7066 79.08 87.0693 78.408C87.432 77.736 87.9333 77.208 88.5733 76.824C89.2133 76.4293 89.9546 76.232 90.7973 76.232C91.3306 76.232 91.832 76.328 92.3013 76.52C92.7706 76.712 93.1866 76.9733 93.5493 77.304C93.912 77.624 94.184 77.9973 94.3653 78.424L93.2773 78.984C93.064 78.5253 92.7386 78.152 92.3013 77.864C91.864 77.576 91.3626 77.432 90.7973 77.432C90.232 77.432 89.72 77.576 89.2613 77.864C88.8133 78.1413 88.456 78.5307 88.1893 79.032C87.9333 79.5227 87.8053 80.0827 87.8053 80.712C87.8053 81.3307 87.9333 81.8907 88.1893 82.392C88.456 82.8827 88.8133 83.272 89.2613 83.56C89.72 83.848 90.232 83.992 90.7973 83.992C91.3626 83.992 91.8586 83.848 92.2853 83.56C92.7226 83.272 93.0533 82.888 93.2773 82.408L94.3653 83C94.184 83.416 93.912 83.7893 93.5493 84.12C93.1866 84.4507 92.7706 84.712 92.3013 84.904C91.832 85.096 91.3306 85.192 90.7973 85.192ZM101.175 85.192C100.375 85.192 99.6497 85 98.9991 84.616C98.3591 84.2213 97.8524 83.6827 97.4791 83C97.1057 82.3173 96.9191 81.544 96.9191 80.68C96.9191 79.816 97.1004 79.0533 97.4631 78.392C97.8257 77.72 98.3164 77.192 98.9351 76.808C99.5644 76.424 100.268 76.232 101.047 76.232C101.666 76.232 102.215 76.3493 102.695 76.584C103.186 76.808 103.602 77.1173 103.943 77.512C104.284 77.896 104.546 78.3333 104.727 78.824C104.908 79.304 104.999 79.8 104.999 80.312C104.999 80.4187 104.994 80.5413 104.983 80.68C104.972 80.808 104.956 80.9413 104.935 81.08H97.6871V79.96H104.247L103.671 80.44C103.767 79.8533 103.698 79.3307 103.463 78.872C103.239 78.4027 102.914 78.0347 102.487 77.768C102.06 77.4907 101.58 77.352 101.047 77.352C100.514 77.352 100.018 77.4907 99.5591 77.768C99.1111 78.0453 98.7591 78.4347 98.5031 78.936C98.2471 79.4267 98.1457 80.0133 98.1991 80.696C98.1457 81.3787 98.2524 81.976 98.5191 82.488C98.7964 82.9893 99.1697 83.3787 99.6391 83.656C100.119 83.9333 100.631 84.072 101.175 84.072C101.804 84.072 102.332 83.9227 102.759 83.624C103.186 83.3253 103.532 82.952 103.799 82.504L104.823 83.048C104.652 83.432 104.391 83.7893 104.039 84.12C103.687 84.44 103.266 84.7013 102.775 84.904C102.295 85.096 101.762 85.192 101.175 85.192ZM110.891 85.192C110.069 85.192 109.349 84.984 108.731 84.568C108.112 84.152 107.664 83.5867 107.387 82.872L108.395 82.392C108.64 82.9147 108.981 83.3307 109.419 83.64C109.867 83.9493 110.357 84.104 110.891 84.104C111.403 84.104 111.835 83.9813 112.187 83.736C112.539 83.48 112.715 83.1493 112.715 82.744C112.715 82.4453 112.629 82.2107 112.459 82.04C112.288 81.8587 112.091 81.72 111.867 81.624C111.643 81.528 111.445 81.4587 111.275 81.416L110.043 81.064C109.253 80.84 108.683 80.5253 108.331 80.12C107.979 79.7147 107.803 79.2453 107.803 78.712C107.803 78.2107 107.931 77.7733 108.187 77.4C108.443 77.0267 108.789 76.7387 109.227 76.536C109.664 76.3333 110.149 76.232 110.683 76.232C111.408 76.232 112.064 76.424 112.651 76.808C113.248 77.1813 113.669 77.704 113.915 78.376L112.891 78.856C112.677 78.376 112.368 78.0027 111.963 77.736C111.568 77.4587 111.125 77.32 110.635 77.32C110.155 77.32 109.771 77.4427 109.483 77.688C109.195 77.9333 109.051 78.2427 109.051 78.616C109.051 78.904 109.125 79.1333 109.275 79.304C109.424 79.4747 109.595 79.6027 109.787 79.688C109.989 79.7733 110.165 79.8373 110.315 79.88L111.739 80.296C112.432 80.4987 112.971 80.8133 113.355 81.24C113.749 81.6667 113.947 82.168 113.947 82.744C113.947 83.2133 113.813 83.6347 113.547 84.008C113.291 84.3813 112.933 84.6747 112.475 84.888C112.016 85.0907 111.488 85.192 110.891 85.192ZM44.0408 105.192C43.2195 105.192 42.4995 104.984 41.8808 104.568C41.2621 104.152 40.8141 103.587 40.5368 102.872L41.5448 102.392C41.7901 102.915 42.1315 103.331 42.5688 103.64C43.0168 103.949 43.5075 104.104 44.0408 104.104C44.5528 104.104 44.9848 103.981 45.3368 103.736C45.6888 103.48 45.8648 103.149 45.8648 102.744C45.8648 102.445 45.7795 102.211 45.6088 102.04C45.4381 101.859 45.2408 101.72 45.0168 101.624C44.7928 101.528 44.5955 101.459 44.4248 101.416L43.1928 101.064C42.4035 100.84 41.8328 100.525 41.4808 100.12C41.1288 99.7147 40.9528 99.2453 40.9528 98.712C40.9528 98.2107 41.0808 97.7733 41.3368 97.4C41.5928 97.0267 41.9395 96.7387 42.3768 96.536C42.8141 96.3333 43.2995 96.232 43.8328 96.232C44.5581 96.232 45.2141 96.424 45.8008 96.808C46.3981 97.1813 46.8195 97.704 47.0648 98.376L46.0408 98.856C45.8275 98.376 45.5181 98.0027 45.1128 97.736C44.7181 97.4587 44.2755 97.32 43.7848 97.32C43.3048 97.32 42.9208 97.4427 42.6328 97.688C42.3448 97.9333 42.2008 98.2427 42.2008 98.616C42.2008 98.904 42.2755 99.1333 42.4248 99.304C42.5741 99.4747 42.7448 99.6027 42.9368 99.688C43.1395 99.7733 43.3155 99.8373 43.4648 99.88L44.8888 100.296C45.5821 100.499 46.1208 100.813 46.5048 101.24C46.8995 101.667 47.0968 102.168 47.0968 102.744C47.0968 103.213 46.9635 103.635 46.6968 104.008C46.4408 104.381 46.0835 104.675 45.6248 104.888C45.1661 105.091 44.6381 105.192 44.0408 105.192ZM53.2854 105.096C52.5174 105.096 51.9254 104.872 51.5094 104.424C51.0934 103.976 50.8854 103.336 50.8854 102.504V97.624H49.3014V96.424H49.7014C50.0641 96.424 50.3521 96.3067 50.5654 96.072C50.7788 95.8267 50.8854 95.5227 50.8854 95.16V94.44H52.0854V96.424H53.9734V97.624H52.0854V102.504C52.0854 102.792 52.1281 103.048 52.2134 103.272C52.2988 103.485 52.4428 103.656 52.6454 103.784C52.8588 103.912 53.1414 103.976 53.4934 103.976C53.5788 103.976 53.6801 103.971 53.7974 103.96C53.9148 103.949 54.0161 103.939 54.1014 103.928V105C53.9734 105.032 53.8294 105.053 53.6694 105.064C53.5094 105.085 53.3814 105.096 53.2854 105.096ZM57.0086 105V96.424H58.2086V97.832L58.0486 97.624C58.2512 97.2187 58.5552 96.8987 58.9606 96.664C59.3766 96.4293 59.8779 96.312 60.4646 96.312H61.0086V97.512H60.2566C59.6379 97.512 59.1419 97.704 58.7686 98.088C58.3952 98.472 58.2086 99.016 58.2086 99.72V105H57.0086ZM67.1188 105.192C66.3188 105.192 65.5935 105 64.9428 104.616C64.3028 104.221 63.7961 103.683 63.4228 103C63.0495 102.317 62.8628 101.544 62.8628 100.68C62.8628 99.816 63.0441 99.0533 63.4068 98.392C63.7695 97.72 64.2601 97.192 64.8788 96.808C65.5081 96.424 66.2121 96.232 66.9908 96.232C67.6095 96.232 68.1588 96.3493 68.6388 96.584C69.1295 96.808 69.5455 97.1173 69.8868 97.512C70.2281 97.896 70.4895 98.3333 70.6708 98.824C70.8521 99.304 70.9428 99.8 70.9428 100.312C70.9428 100.419 70.9375 100.541 70.9268 100.68C70.9161 100.808 70.9001 100.941 70.8788 101.08H63.6308V99.96H70.1908L69.6148 100.44C69.7108 99.8533 69.6415 99.3307 69.4068 98.872C69.1828 98.4027 68.8575 98.0347 68.4308 97.768C68.0041 97.4907 67.5241 97.352 66.9908 97.352C66.4575 97.352 65.9615 97.4907 65.5028 97.768C65.0548 98.0453 64.7028 98.4347 64.4468 98.936C64.1908 99.4267 64.0895 100.013 64.1428 100.696C64.0895 101.379 64.1961 101.976 64.4628 102.488C64.7401 102.989 65.1135 103.379 65.5828 103.656C66.0628 103.933 66.5748 104.072 67.1188 104.072C67.7481 104.072 68.2761 103.923 68.7028 103.624C69.1295 103.325 69.4761 102.952 69.7428 102.504L70.7668 103.048C70.5961 103.432 70.3348 103.789 69.9828 104.12C69.6308 104.44 69.2095 104.701 68.7188 104.904C68.2388 105.096 67.7055 105.192 67.1188 105.192ZM73.8586 105V96.424H75.0586V98.088L74.7866 98.024C74.9999 97.4693 75.3466 97.032 75.8266 96.712C76.3172 96.392 76.8826 96.232 77.5226 96.232C78.1306 96.232 78.6746 96.3707 79.1546 96.648C79.6452 96.9253 80.0292 97.3093 80.3066 97.8C80.5946 98.28 80.7386 98.824 80.7386 99.432V105H79.5386V99.896C79.5386 99.3733 79.4426 98.9307 79.2506 98.568C79.0692 98.2053 78.8079 97.928 78.4666 97.736C78.1359 97.5333 77.7519 97.432 77.3146 97.432C76.8772 97.432 76.4879 97.5333 76.1466 97.736C75.8052 97.928 75.5386 98.2107 75.3466 98.584C75.1546 98.9467 75.0586 99.384 75.0586 99.896V105H73.8586ZM87.8944 108.52C87.3078 108.52 86.7638 108.429 86.2624 108.248C85.7718 108.067 85.3451 107.816 84.9824 107.496C84.6304 107.187 84.3584 106.824 84.1664 106.408L85.2704 105.816C85.4411 106.221 85.7451 106.573 86.1824 106.872C86.6198 107.171 87.1798 107.32 87.8624 107.32C88.3851 107.32 88.8651 107.219 89.3024 107.016C89.7398 106.813 90.0918 106.515 90.3584 106.12C90.6251 105.725 90.7584 105.24 90.7584 104.664V102.76L90.9504 102.936C90.6518 103.555 90.2091 104.035 89.6224 104.376C89.0358 104.707 88.3958 104.872 87.7024 104.872C86.9024 104.872 86.1824 104.68 85.5424 104.296C84.9024 103.912 84.3958 103.395 84.0224 102.744C83.6598 102.083 83.4784 101.352 83.4784 100.552C83.4784 99.7413 83.6598 99.0107 84.0224 98.36C84.3958 97.7093 84.8971 97.192 85.5264 96.808C86.1664 96.424 86.8918 96.232 87.7024 96.232C88.3958 96.232 89.0251 96.392 89.5904 96.712C90.1664 97.032 90.6198 97.464 90.9504 98.008L90.7584 98.344V96.424H91.9584V104.664C91.9584 105.4 91.7824 106.056 91.4304 106.632C91.0891 107.219 90.6091 107.677 89.9904 108.008C89.3824 108.349 88.6838 108.52 87.8944 108.52ZM87.7664 103.672C88.3211 103.672 88.8224 103.533 89.2704 103.256C89.7184 102.968 90.0758 102.589 90.3424 102.12C90.6198 101.64 90.7584 101.117 90.7584 100.552C90.7584 99.9867 90.6198 99.4693 90.3424 99C90.0758 98.52 89.7184 98.1413 89.2704 97.864C88.8224 97.576 88.3211 97.432 87.7664 97.432C87.2011 97.432 86.6891 97.576 86.2304 97.864C85.7718 98.1413 85.4091 98.5147 85.1424 98.984C84.8864 99.4533 84.7584 99.976 84.7584 100.552C84.7584 101.117 84.8864 101.64 85.1424 102.12C85.4091 102.589 85.7664 102.968 86.2144 103.256C86.6731 103.533 87.1904 103.672 87.7664 103.672ZM98.5042 105.096C97.7362 105.096 97.1442 104.872 96.7282 104.424C96.3122 103.976 96.1042 103.336 96.1042 102.504V97.624H94.5202V96.424H94.9202C95.2829 96.424 95.5709 96.3067 95.7842 96.072C95.9975 95.8267 96.1042 95.5227 96.1042 95.16V94.44H97.3042V96.424H99.1922V97.624H97.3042V102.504C97.3042 102.792 97.3469 103.048 97.4322 103.272C97.5175 103.485 97.6615 103.656 97.8642 103.784C98.0775 103.912 98.3602 103.976 98.7122 103.976C98.7975 103.976 98.8989 103.971 99.0162 103.96C99.1335 103.949 99.2349 103.939 99.3202 103.928V105C99.1922 105.032 99.0482 105.053 98.8882 105.064C98.7282 105.085 98.6002 105.096 98.5042 105.096ZM102.227 105V92.888H103.427V98.088L103.155 98.024C103.369 97.4693 103.715 97.032 104.195 96.712C104.686 96.392 105.251 96.232 105.891 96.232C106.499 96.232 107.043 96.3707 107.523 96.648C108.014 96.9253 108.398 97.3093 108.675 97.8C108.963 98.28 109.107 98.824 109.107 99.432V105H107.907V99.896C107.907 99.3733 107.811 98.9307 107.619 98.568C107.427 98.2053 107.161 97.928 106.819 97.736C106.489 97.5333 106.11 97.432 105.683 97.432C105.257 97.432 104.873 97.5333 104.531 97.736C104.19 97.928 103.918 98.2107 103.715 98.584C103.523 98.9467 103.427 99.384 103.427 99.896V105H102.227Z"
              fill="#0B0A0C"
            />
            <path
              d="M72 16C73.6594 16 75 17.3406 75 19V29.5H69V19C69 17.3406 70.3406 16 72 16ZM60 22C60 20.3406 61.3406 19 63 19C64.6594 19 66 20.3406 66 22V29.5H60V22ZM78 22C78 20.3406 79.3406 19 81 19C82.6594 19 84 20.3406 84 22V31C84 32.6594 82.6594 34 81 34C79.3406 34 78 32.6594 78 31V22ZM87 28C87 26.3406 88.3406 25 90 25C91.6594 25 93 26.3406 93 28V34C93 35.6594 91.6594 37 90 37C88.3406 37 87 35.6594 87 34V28ZM78 36.25V36.1937C78.8813 36.7 79.9031 37 81 37C82.2375 37 83.3813 36.625 84.3375 35.9875C85.1531 38.3219 87.3844 40 90 40C91.0969 40 92.1188 39.7094 93 39.1937V40C93 44.9031 90.6469 49.2625 87 52V61C87 62.6594 85.6594 64 84 64H69C67.3406 64 66 62.6594 66 61V53.65C64.3781 52.9094 62.8875 51.8875 61.6031 50.6031L60.5156 49.5156C58.2656 47.2656 57 44.2094 57 41.0312V38.5C57 35.1906 59.6906 32.5 63 32.5H71.25C73.3219 32.5 75 34.1781 75 36.25C75 38.3219 73.3219 40 71.25 40H66C65.175 40 64.5 40.675 64.5 41.5C64.5 42.325 65.175 43 66 43H71.25C74.9813 43 78 39.9813 78 36.25Z"
              fill="#0B0A0C"
            />
          </svg>