<svg width="40" height="36" viewBox="0 0 40 36" fill="none" xmlns="http://www.w3.org/2000/svg">
<path d="M24.4844 0.570263C26.5156 0.976513 27.8359 2.95308 27.4297 4.98433L27.25 5.87495C26.8359 7.96089 26.0703 9.94526 25 11.75H36.25C38.3203 11.75 40 13.4296 40 15.5C40 17.4765 38.4766 19.0937 36.5391 19.2421C37.1406 19.9062 37.5 20.789 37.5 21.75C37.5 23.5781 36.1875 25.1015 34.4609 25.4296C34.8047 25.9921 35 26.664 35 27.375C35 29.039 33.9141 30.4531 32.4141 30.9375C32.4688 31.1953 32.5 31.4687 32.5 31.75C32.5 33.8203 30.8203 35.5 28.75 35.5H23.0078C21.5234 35.5 20.0781 35.0625 18.8438 34.2421L15.8359 32.2343C13.75 30.8437 12.5 28.5 12.5 25.9921V23V19.25V17.3046C12.5 15.0234 13.5391 12.875 15.3125 11.4453L15.8906 10.9843C17.9609 9.32808 19.375 6.99995 19.8906 4.4062L20.0703 3.51558C20.4766 1.48433 22.4531 0.164013 24.4844 0.570263ZM2.5 13H7.5C8.88281 13 10 14.1171 10 15.5V33C10 34.3828 8.88281 35.5 7.5 35.5H2.5C1.11719 35.5 0 34.3828 0 33V15.5C0 14.1171 1.11719 13 2.5 13Z" fill="#0B0A0C"/>
</svg>
